<?xml version="1.0" encoding="UTF-8"?>
<!DOCTYPE svg PUBLIC "-//W3C//DTD SVG 1.1//EN" "http://www.w3.org/Graphics/SVG/1.1/DTD/svg11.dtd">
<svg xmlns="http://www.w3.org/2000/svg" version="1.1" width="7110px" height="7110px" style="shape-rendering:geometricPrecision; text-rendering:geometricPrecision; image-rendering:optimizeQuality; fill-rule:evenodd; clip-rule:evenodd" xmlns:xlink="http://www.w3.org/1999/xlink">
<g><path style="opacity:0.308" fill="#379ad6" d="M 3478.5,352.5 C 3751.42,346.461 4022.25,374.461 4291,436.5C 4742.58,545.02 5150.75,740.187 5515.5,1022C 5917.33,1336.19 6228.83,1723.36 6450,2183.5C 6614.44,2535.46 6712.27,2895.96 6743.5,3265C 6744.95,3271.73 6745.95,3278.4 6746.5,3285C 6746.17,3286 6745.83,3287 6745.5,3288C 6746.17,3290.67 6746.83,3293.33 6747.5,3296C 6746.95,3297.4 6746.62,3298.73 6746.5,3300C 6747.17,3303.33 6747.83,3306.67 6748.5,3310C 6747.95,3311.4 6747.62,3312.73 6747.5,3314C 6748.08,3322.56 6749.08,3330.89 6750.5,3339C 6750.17,3340.67 6749.83,3342.33 6749.5,3344C 6750.17,3348 6750.83,3352 6751.5,3356C 6751.86,3363.85 6751.86,3371.19 6751.5,3378C 6752.61,3389.05 6753.61,3400.05 6754.5,3411C 6754.17,3414 6753.83,3417 6753.5,3420C 6765.87,3701.64 6741.37,3980.47 6680,4256.5C 6582.28,4685.47 6405.62,5077.13 6150,5431.5C 5881.21,5799.95 5549.71,6099.11 5155.5,6329C 4749.63,6561.14 4319.47,6698.64 3865,6741.5C 3862.33,6742.17 3859.67,6742.83 3857,6743.5C 3852.67,6743.5 3848.33,6743.5 3844,6743.5C 3841,6744.17 3838,6744.83 3835,6745.5C 3834,6745.17 3833,6744.83 3832,6744.5C 3829.33,6745.17 3826.67,6745.83 3824,6746.5C 3823,6746.17 3822,6745.83 3821,6745.5C 3818.67,6746.17 3816.33,6746.83 3814,6747.5C 3809.58,6746.55 3804.58,6746.88 3799,6748.5C 3797.33,6748.17 3795.67,6747.83 3794,6747.5C 3790.67,6748.17 3787.33,6748.83 3784,6749.5C 3783,6749.17 3782,6748.83 3781,6748.5C 3766.01,6749.94 3751.01,6751.28 3736,6752.5C 3734.6,6751.95 3733.27,6751.62 3732,6751.5C 3361.86,6772.61 2997.02,6730.11 2637.5,6624C 2204.56,6492.93 1817.23,6281.93 1475.5,5991C 1106.68,5673.96 822.515,5292.46 623,4846.5C 465.727,4484.91 377.227,4114.41 357.5,3735C 356.833,3730 356.167,3725 355.5,3720C 355.323,3717.45 355.657,3715.12 356.5,3713C 355.833,3707.33 355.167,3701.67 354.5,3696C 354.833,3693.67 355.167,3691.33 355.5,3689C 354.361,3669.52 353.361,3649.52 352.5,3629C 352.514,3578.72 352.514,3528.72 352.5,3479C 353.167,3467.33 353.833,3455.67 354.5,3444C 362.399,3161.11 410.565,2876.95 499,2591.5C 642.311,2143.66 870.644,1746.66 1184,1400.5C 1458.73,1099.83 1778.9,859.001 2144.5,678C 2512.18,499.438 2893.35,394.605 3288,363.5C 3295.44,362.082 3303.11,361.082 3311,360.5C 3312,360.833 3313,361.167 3314,361.5C 3317.67,360.833 3321.33,360.167 3325,359.5C 3325.33,359.833 3325.67,360.167 3326,360.5C 3341.66,359.072 3357.33,357.739 3373,356.5C 3373.33,356.833 3373.67,357.167 3374,357.5C 3387.05,356.586 3400.05,355.586 3413,354.5C 3414,354.833 3415,355.167 3416,355.5C 3436.1,354.439 3456.93,353.439 3478.5,352.5 Z"/></g>
<g><path style="opacity:1" fill="#99cce9" d="M 2738.5,1627.5 C 2738.33,1798.5 2738.5,1969.5 2739,2140.5C 2739.38,2141.06 2739.88,2141.39 2740.5,2141.5C 2739.81,2142.77 2738.98,2142.77 2738,2141.5C 2737.17,1970 2737.33,1798.67 2738.5,1627.5 Z"/></g>
<g><path style="opacity:1" fill="#fefffe" d="M 2738.5,1627.5 C 2879.83,1627.5 3021.17,1627.5 3162.5,1627.5C 3163,1688.31 3162.5,1748.98 3161,1809.5C 3081.33,1809.17 3001.67,1808.83 2922,1808.5C 2921.08,1809.05 2920.24,1809.71 2919.5,1810.5C 2920.38,1865.27 2920.38,1919.94 2919.5,1974.5C 3000.5,1975.5 3081.5,1975.83 3162.5,1975.5C 3162.5,2030.83 3162.5,2086.17 3162.5,2141.5C 3021.83,2141.5 2881.17,2141.5 2740.5,2141.5C 2739.88,2141.39 2739.38,2141.06 2739,2140.5C 2738.5,1969.5 2738.33,1798.5 2738.5,1627.5 Z"/></g>
<g><path style="opacity:1" fill="#fefffe" d="M 3344.5,1627.5 C 3485.83,1627.5 3627.17,1627.5 3768.5,1627.5C 3768.67,1688.17 3768.5,1748.83 3768,1809.5C 3712.33,1809.17 3656.67,1808.83 3601,1808.5C 3600.5,1809 3600,1809.5 3599.5,1810C 3655.67,1864.83 3711.83,1919.67 3768,1974.5C 3768.5,2030.17 3768.67,2085.83 3768.5,2141.5C 3627.17,2141.5 3485.83,2141.5 3344.5,2141.5C 3344.17,2086.26 3344.5,2031.1 3345.5,1976C 3401.17,1975.67 3456.83,1975.33 3512.5,1975C 3456.67,1919.83 3400.83,1864.67 3345,1809.5C 3344.5,1748.83 3344.33,1688.17 3344.5,1627.5 Z"/></g>
<g><path style="opacity:1" fill="#fefffe" d="M 3946.5,1627.5 C 4087.83,1627.5 4229.17,1627.5 4370.5,1627.5C 4370.67,1687.83 4370.5,1748.17 4370,1808.5C 4314.57,1809.64 4259.07,1809.64 4203.5,1808.5C 4203.17,1809 4202.83,1809.5 4202.5,1810C 4257.87,1865.04 4313.71,1919.87 4370,1974.5C 4370.5,2030.17 4370.67,2085.83 4370.5,2141.5C 4229.26,2141.83 4088.1,2141.5 3947,2140.5C 3946.17,2085.6 3946.34,2030.76 3947.5,1976C 4003.17,1975.67 4058.83,1975.33 4114.5,1975C 4058.61,1919.78 4002.78,1864.61 3947,1809.5C 3946.5,1748.83 3946.33,1688.17 3946.5,1627.5 Z"/></g>
<g><path style="opacity:1" fill="#99cce9" d="M 4929.5,2393.5 C 4929.5,2391.17 4929.5,2388.83 4929.5,2386.5C 4012.43,2386.17 3095.43,2386.5 2178.5,2387.5C 2636.83,2386.17 3095.5,2385.5 3554.5,2385.5C 4013.17,2385.83 4471.83,2386.17 4930.5,2386.5C 4930.71,2387.09 4931.04,2387.59 4931.5,2388C 4930.89,2389.95 4930.22,2391.78 4929.5,2393.5 Z"/></g>
<g><path style="opacity:1" fill="#fefffe" d="M 4929.5,2393.5 C 4929.38,2397.83 4928.71,2402.33 4927.5,2407C 4927.83,2408 4928.17,2409 4928.5,2410C 4927.83,2412.33 4927.17,2414.67 4926.5,2417C 4926.7,2421.02 4926.7,2425.18 4926.5,2429.5C 4925.53,2431.95 4925.19,2434.61 4925.5,2437.5C 4920.86,2485.58 4916.53,2533.58 4912.5,2581.5C 4911.53,2583.61 4911.2,2585.94 4911.5,2588.5C 4911.23,2592.81 4910.56,2597.31 4909.5,2602C 4910.06,2602.38 4910.39,2602.88 4910.5,2603.5C 4909.53,2605.61 4909.2,2607.94 4909.5,2610.5C 4907.85,2629.83 4905.85,2649.67 4903.5,2670C 4903.83,2670.33 4904.17,2670.67 4904.5,2671C 4903.83,2674 4903.17,2677 4902.5,2680C 4902.83,2680.33 4903.17,2680.67 4903.5,2681C 4902.83,2684 4902.17,2687 4901.5,2690C 4901.83,2690.33 4902.17,2690.67 4902.5,2691C 4901.83,2694 4901.17,2697 4900.5,2700C 4900.5,2704.33 4900.5,2708.67 4900.5,2713C 4899.83,2716 4899.17,2719 4898.5,2722C 4898.83,2723 4899.17,2724 4899.5,2725C 4898.14,2730.84 4897.14,2736.51 4896.5,2742C 4897.05,2743.4 4897.38,2744.73 4897.5,2746C 4896.94,2751.94 4895.94,2757.94 4894.5,2764C 4894.96,2764.41 4895.29,2764.91 4895.5,2765.5C 4894.87,2769.03 4894.2,2772.53 4893.5,2776C 4893.5,2780.33 4893.5,2784.67 4893.5,2789C 4892.83,2791.67 4892.17,2794.33 4891.5,2797C 4892.06,2797.38 4892.39,2797.88 4892.5,2798.5C 4891.53,2800.61 4891.2,2802.94 4891.5,2805.5C 4890.81,2809.84 4890.47,2814.5 4890.5,2819.5C 4889.53,2821.95 4889.19,2824.61 4889.5,2827.5C 4883.98,2884.07 4878.98,2939.4 4874.5,2993.5C 4873.53,2995.61 4873.2,2997.94 4873.5,3000.5C 4869.79,3041.73 4865.79,3082.89 4861.5,3124C 4861.83,3124.33 4862.17,3124.67 4862.5,3125C 4861.02,3128.85 4860.68,3132.35 4861.5,3135.5C 4860.78,3137.56 4860.12,3139.72 4859.5,3142C 4859.73,3142.4 4860.06,3142.57 4860.5,3142.5C 4859.14,3153.8 4858.14,3165.47 4857.5,3177.5C 4856.53,3179.61 4856.2,3181.94 4856.5,3184.5C 4853.11,3218.64 4850.11,3252.8 4847.5,3287C 4846.83,3290 4846.17,3293 4845.5,3296C 4845.83,3297 4846.17,3298 4846.5,3299C 4845.17,3308.67 4843.83,3318.33 4842.5,3328C 4842.62,3329.27 4842.95,3330.6 4843.5,3332C 4842.83,3333.67 4842.17,3335.33 4841.5,3337C 4842.36,3340.38 4842.02,3344.04 4840.5,3348C 4841.02,3348.56 4841.36,3349.23 4841.5,3350C 4840.42,3360.68 4839.08,3371.35 4837.5,3382C 4838.06,3382.38 4838.39,3382.88 4838.5,3383.5C 4837.53,3385.61 4837.2,3387.94 4837.5,3390.5C 4834.78,3417.22 4832.45,3444.05 4830.5,3471C 4829.83,3474 4829.17,3477 4828.5,3480C 4828.83,3481 4829.17,3482 4829.5,3483C 4828.02,3488.86 4827.02,3494.86 4826.5,3501C 4826.83,3502 4827.17,3503 4827.5,3504C 4826.83,3506.67 4826.17,3509.33 4825.5,3512C 4825.83,3513 4826.17,3514 4826.5,3515C 4825.02,3518.85 4824.68,3522.35 4825.5,3525.5C 4824.78,3527.56 4824.12,3529.72 4823.5,3532C 4823.73,3532.4 4824.06,3532.57 4824.5,3532.5C 4822.04,3554.8 4820.04,3577.13 4818.5,3599.5C 4817.53,3601.95 4817.19,3604.61 4817.5,3607.5C 4812.64,3660.2 4807.64,3711.87 4802.5,3762.5C 4802.71,3763.09 4803.04,3763.59 4803.5,3764C 4802.83,3766.67 4802.17,3769.33 4801.5,3772C 4802.06,3772.38 4802.39,3772.88 4802.5,3773.5C 4801.53,3775.61 4801.2,3777.94 4801.5,3780.5C 4798.94,3805.96 4796.61,3832.29 4794.5,3859.5C 4793.53,3861.61 4793.2,3863.94 4793.5,3866.5C 4793.23,3870.81 4792.56,3875.31 4791.5,3880C 4791.83,3881 4792.17,3882 4792.5,3883C 4791.83,3885.67 4791.17,3888.33 4790.5,3891C 4790.83,3892 4791.17,3893 4791.5,3894C 4790.96,3899.87 4789.96,3905.87 4788.5,3912C 4788.62,3913.14 4788.95,3914.31 4789.5,3915.5C 4788.78,3917.56 4788.12,3919.72 4787.5,3922C 4787.73,3922.4 4788.06,3922.57 4788.5,3922.5C 4788.44,3925.86 4787.77,3929.69 4786.5,3934C 4786.62,3935.27 4786.95,3936.6 4787.5,3938C 4786.04,3944.35 4785.37,3950.85 4785.5,3957.5C 4784.53,3959.61 4784.2,3961.94 4784.5,3964.5C 4784.23,3968.81 4783.56,3973.31 4782.5,3978C 4783.06,3978.38 4783.39,3978.88 4783.5,3979.5C 4782.53,3981.61 4782.2,3983.94 4782.5,3986.5C 4782.5,3987.5 4782.5,3988.5 4782.5,3989.5C 4781.53,3991.95 4781.19,3994.61 4781.5,3997.5C 4777.03,4046.29 4772.36,4094.46 4767.5,4142C 4767.83,4142.33 4768.17,4142.67 4768.5,4143C 4766.96,4153.07 4765.96,4163.23 4765.5,4173.5C 4764.53,4175.95 4764.19,4178.61 4764.5,4181.5C 4761.86,4211.06 4758.86,4240.56 4755.5,4270C 4755.62,4271.27 4755.95,4272.6 4756.5,4274C 4755.06,4283.32 4753.72,4292.65 4752.5,4302C 4752.62,4303.14 4752.95,4304.31 4753.5,4305.5C 4752.78,4307.56 4752.12,4309.72 4751.5,4312C 4751.73,4312.4 4752.06,4312.57 4752.5,4312.5C 4750.59,4328.18 4749.25,4343.68 4748.5,4359C 4747.83,4362 4747.17,4365 4746.5,4368C 4747.06,4368.38 4747.39,4368.88 4747.5,4369.5C 4746.53,4371.61 4746.2,4373.94 4746.5,4376.5C 4741.32,4428.61 4736.65,4480.28 4732.5,4531.5C 4731.53,4533.61 4731.2,4535.94 4731.5,4538.5C 4730.99,4543.2 4730.66,4548.2 4730.5,4553.5C 4729.53,4555.61 4729.2,4557.94 4729.5,4560.5C 4727.95,4576.48 4726.28,4592.65 4724.5,4609C 4724.83,4609.33 4725.17,4609.67 4725.5,4610C 4724.94,4615.94 4723.94,4621.94 4722.5,4628C 4722.83,4629 4723.17,4630 4723.5,4631C 4722.83,4634 4722.17,4637 4721.5,4640C 4721.5,4644 4721.5,4648 4721.5,4652C 4720.83,4654.67 4720.17,4657.33 4719.5,4660C 4720.06,4660.38 4720.39,4660.88 4720.5,4661.5C 4719.53,4663.61 4719.2,4665.94 4719.5,4668.5C 4714.62,4717.82 4710.29,4766.65 4706.5,4815C 4704.87,4818.61 4704.54,4821.94 4705.5,4825C 4704.63,4831.35 4703.63,4837.68 4702.5,4844C 4703.06,4844.38 4703.39,4844.88 4703.5,4845.5C 4702.53,4847.61 4702.2,4849.94 4702.5,4852.5C 4699.4,4885.25 4696.4,4918.91 4693.5,4953.5C 4692.53,4955.95 4692.19,4958.61 4692.5,4961.5C 4690.74,4983.21 4688.41,5005.05 4685.5,5027C 4686.25,5027.67 4686.59,5028.5 4686.5,5029.5C 4685.53,5031.61 4685.2,5033.94 4685.5,5036.5C 4685.38,5040.83 4684.71,5045.33 4683.5,5050C 4684.06,5050.38 4684.39,5050.88 4684.5,5051.5C 4683.53,5053.61 4683.2,5055.94 4683.5,5058.5C 4680.43,5088.78 4677.76,5119.61 4675.5,5151C 4674.13,5160.79 4672.8,5170.62 4671.5,5180.5C 4661.1,5183.68 4650.77,5186.68 4640.5,5189.5C 4637.85,5189.41 4635.51,5190.08 4633.5,5191.5C 4273.73,5287.76 3914.06,5384.42 3554.5,5481.5C 3498.19,5466.34 3441.86,5451.34 3385.5,5436.5C 3383.49,5435.08 3381.15,5434.41 3378.5,5434.5C 3358.66,5428.87 3338.66,5423.54 3318.5,5418.5C 3316.49,5417.08 3314.15,5416.41 3311.5,5416.5C 3185.04,5381.97 3058.71,5347.97 2932.5,5314.5C 2930.49,5313.08 2928.15,5312.41 2925.5,5312.5C 2865.91,5296.25 2806.24,5280.25 2746.5,5264.5C 2744.49,5263.08 2742.15,5262.41 2739.5,5262.5C 2737.49,5261.08 2735.15,5260.41 2732.5,5260.5C 2650.67,5237.89 2568.67,5215.89 2486.5,5194.5C 2484.49,5193.08 2482.15,5192.41 2479.5,5192.5C 2465.61,5188.52 2451.61,5184.52 2437.5,5180.5C 2436.01,5176.96 2435.68,5173.79 2436.5,5171C 2435.83,5168 2435.17,5165 2434.5,5162C 2434.27,5157.4 2434.27,5153.06 2434.5,5149C 2433.83,5146 2433.17,5143 2432.5,5140C 2432.83,5139.67 2433.17,5139.33 2433.5,5139C 2432.83,5136 2432.17,5133 2431.5,5130C 2431.83,5129.67 2432.17,5129.33 2432.5,5129C 2430.11,5108.75 2428.11,5089.58 2426.5,5071.5C 2426.94,5071.57 2427.27,5071.4 2427.5,5071C 2426.88,5068.72 2426.22,5066.56 2425.5,5064.5C 2425.53,5060 2425.53,5055.5 2425.5,5051C 2424.83,5048.33 2424.17,5045.67 2423.5,5043C 2423.62,5041.73 2423.95,5040.4 2424.5,5039C 2422.87,5034.74 2422.54,5030.74 2423.5,5027C 2421.87,5023.39 2421.54,5020.06 2422.5,5017C 2421.86,5011.51 2420.86,5005.84 2419.5,5000C 2419.83,4999.67 2420.17,4999.33 2420.5,4999C 2420.13,4991.63 2419.13,4984.13 2417.5,4976.5C 2417.71,4975.91 2418.04,4975.41 2418.5,4975C 2417.5,4968.67 2416.5,4962.33 2415.5,4956C 2415.83,4955.67 2416.17,4955.33 2416.5,4955C 2413.09,4923.61 2410.09,4893.44 2407.5,4864.5C 2407.81,4861.61 2407.47,4858.95 2406.5,4856.5C 2397.97,4759.73 2389.31,4664.73 2380.5,4571.5C 2380.8,4568.94 2380.47,4566.61 2379.5,4564.5C 2379.34,4559.2 2379.01,4554.2 2378.5,4549.5C 2378.8,4546.94 2378.47,4544.61 2377.5,4542.5C 2376.51,4526.57 2375.17,4510.9 2373.5,4495.5C 2373.8,4492.94 2373.47,4490.61 2372.5,4488.5C 2369.53,4449.56 2365.86,4410.06 2361.5,4370C 2361.83,4369.67 2362.17,4369.33 2362.5,4369C 2361.83,4366 2361.17,4363 2360.5,4360C 2360.83,4359.67 2361.17,4359.33 2361.5,4359C 2360.5,4352 2359.5,4345 2358.5,4338C 2355.29,4292.52 2350.95,4245.86 2345.5,4198C 2345.83,4197 2346.17,4196 2346.5,4195C 2345.5,4188.67 2344.5,4182.33 2343.5,4176C 2343.5,4171.67 2343.5,4167.33 2343.5,4163C 2342.83,4160 2342.17,4157 2341.5,4154C 2341.83,4153.67 2342.17,4153.33 2342.5,4153C 2337.13,4098.05 2331.79,4042.55 2326.5,3986.5C 2326.81,3983.61 2326.47,3980.95 2325.5,3978.5C 2320.48,3913.58 2314.48,3847.58 2307.5,3780.5C 2307.81,3777.61 2307.47,3774.95 2306.5,3772.5C 2304.48,3745.4 2302.14,3719.73 2299.5,3695.5C 2299.94,3695.57 2300.27,3695.4 2300.5,3695C 2299.88,3692.72 2299.22,3690.56 2298.5,3688.5C 2298.53,3684 2298.53,3679.5 2298.5,3675C 2297.17,3665.33 2295.83,3655.67 2294.5,3646C 2294.83,3645.67 2295.17,3645.33 2295.5,3645C 2294.83,3641.67 2294.17,3638.33 2293.5,3635C 2293.83,3634.67 2294.17,3634.33 2294.5,3634C 2293.83,3630.67 2293.17,3627.33 2292.5,3624C 2292.83,3623.67 2293.17,3623.33 2293.5,3623C 2291.13,3602.97 2289.13,3583.13 2287.5,3563.5C 2287.8,3560.94 2287.47,3558.61 2286.5,3556.5C 2286.36,3552.45 2286.36,3548.62 2286.5,3545C 2285.83,3542 2285.17,3539 2284.5,3536C 2284.83,3535 2285.17,3534 2285.5,3533C 2284.83,3530.33 2284.17,3527.67 2283.5,3525C 2284.05,3523.6 2284.38,3522.27 2284.5,3521C 2283.83,3519.33 2283.17,3517.67 2282.5,3516C 2282.42,3511.06 2282.42,3506.06 2282.5,3501C 2281.83,3498.67 2281.17,3496.33 2280.5,3494C 2280.83,3493 2281.17,3492 2281.5,3491C 2279.42,3478.23 2277.75,3465.23 2276.5,3452C 2275.17,3427.64 2273.17,3403.48 2270.5,3379.5C 2270.8,3376.94 2270.47,3374.61 2269.5,3372.5C 2268.94,3360.24 2267.94,3348.57 2266.5,3337.5C 2266.94,3337.57 2267.27,3337.4 2267.5,3337C 2266.88,3334.72 2266.22,3332.56 2265.5,3330.5C 2266.05,3329.31 2266.38,3328.14 2266.5,3327C 2265.86,3321.51 2264.86,3315.84 2263.5,3310C 2263.83,3309 2264.17,3308 2264.5,3307C 2263.83,3304 2263.17,3301 2262.5,3298C 2262.5,3293.67 2262.5,3289.33 2262.5,3285C 2261.83,3282 2261.17,3279 2260.5,3276C 2260.83,3275.67 2261.17,3275.33 2261.5,3275C 2256.64,3233.2 2252.64,3192.7 2249.5,3153.5C 2249.94,3153.57 2250.27,3153.4 2250.5,3153C 2249.88,3150.72 2249.22,3148.56 2248.5,3146.5C 2249.05,3145.31 2249.38,3144.14 2249.5,3143C 2248.25,3133.66 2246.92,3124.32 2245.5,3115C 2245.62,3113.73 2245.95,3112.4 2246.5,3111C 2244.66,3094.99 2242.66,3078.65 2240.5,3062C 2240.56,3057.61 2240.56,3053.27 2240.5,3049C 2239.5,3042 2238.5,3035 2237.5,3028C 2237.83,3027 2238.17,3026 2238.5,3025C 2235.38,2998.65 2232.71,2972.82 2230.5,2947.5C 2230.94,2947.57 2231.27,2947.4 2231.5,2947C 2230.88,2944.72 2230.22,2942.56 2229.5,2940.5C 2228.33,2921.28 2226.66,2901.62 2224.5,2881.5C 2224.8,2878.94 2224.47,2876.61 2223.5,2874.5C 2221.63,2854.37 2219.96,2835.04 2218.5,2816.5C 2218.81,2813.61 2218.47,2810.95 2217.5,2808.5C 2212.65,2748.5 2206.98,2687.67 2200.5,2626C 2200.83,2625.67 2201.17,2625.33 2201.5,2625C 2200.83,2622 2200.17,2619 2199.5,2616C 2199.83,2615 2200.17,2614 2200.5,2613C 2199.83,2610.33 2199.17,2607.67 2198.5,2605C 2198.83,2604 2199.17,2603 2199.5,2602C 2198.83,2599.33 2198.17,2596.67 2197.5,2594C 2197.47,2589.86 2197.47,2585.7 2197.5,2581.5C 2196.87,2578.3 2196.21,2575.13 2195.5,2572C 2195.27,2567.4 2195.27,2563.06 2195.5,2559C 2194.83,2556 2194.17,2553 2193.5,2550C 2192.23,2530.62 2190.56,2511.12 2188.5,2491.5C 2188.8,2488.94 2188.47,2486.61 2187.5,2484.5C 2185.87,2461.3 2183.87,2438.97 2181.5,2417.5C 2181.94,2417.57 2182.27,2417.4 2182.5,2417C 2181.87,2414.06 2181.21,2411.23 2180.5,2408.5C 2180.47,2404.39 2180.47,2400.23 2180.5,2396C 2179.79,2393.17 2179.12,2390.34 2178.5,2387.5C 3095.43,2386.5 4012.43,2386.17 4929.5,2386.5C 4929.5,2388.83 4929.5,2391.17 4929.5,2393.5 Z"/></g>
<g><path style="opacity:1" fill="#99cce9" d="M 2180.5,2408.5 C 2181.21,2411.23 2181.87,2414.06 2182.5,2417C 2182.27,2417.4 2181.94,2417.57 2181.5,2417.5C 2180.79,2414.77 2180.13,2411.94 2179.5,2409C 2179.73,2408.6 2180.06,2408.43 2180.5,2408.5 Z"/></g>
<g><path style="opacity:1" fill="#99cce9" d="M 4926.5,2429.5 C 4926.94,2429.43 4927.27,2429.6 4927.5,2430C 4926.88,2432.61 4926.21,2435.11 4925.5,2437.5C 4925.19,2434.61 4925.53,2431.95 4926.5,2429.5 Z"/></g>
<g><path style="opacity:1" fill="#99cce9" d="M 2187.5,2484.5 C 2188.47,2486.61 2188.8,2488.94 2188.5,2491.5C 2187.78,2489.44 2187.12,2487.28 2186.5,2485C 2186.73,2484.6 2187.06,2484.43 2187.5,2484.5 Z"/></g>
<g><path style="opacity:1" fill="#99cce9" d="M 4912.5,2581.5 C 4912.94,2581.43 4913.27,2581.6 4913.5,2582C 4912.88,2584.28 4912.22,2586.44 4911.5,2588.5C 4911.2,2585.94 4911.53,2583.61 4912.5,2581.5 Z"/></g>
<g><path style="opacity:1" fill="#99cce9" d="M 4910.5,2603.5 C 4910.94,2603.43 4911.27,2603.6 4911.5,2604C 4910.88,2606.28 4910.22,2608.44 4909.5,2610.5C 4909.2,2607.94 4909.53,2605.61 4910.5,2603.5 Z"/></g>
<g><path style="opacity:1" fill="#99cce9" d="M 4892.5,2798.5 C 4892.61,2799.12 4892.94,2799.62 4893.5,2800C 4892.89,2801.95 4892.22,2803.78 4891.5,2805.5C 4891.2,2802.94 4891.53,2800.61 4892.5,2798.5 Z"/></g>
<g><path style="opacity:1" fill="#99cce9" d="M 2217.5,2808.5 C 2218.47,2810.95 2218.81,2813.61 2218.5,2816.5C 2217.79,2814.11 2217.12,2811.61 2216.5,2809C 2216.73,2808.6 2217.06,2808.43 2217.5,2808.5 Z"/></g>
<g><path style="opacity:1" fill="#99cce9" d="M 4890.5,2819.5 C 4890.94,2819.43 4891.27,2819.6 4891.5,2820C 4890.88,2822.61 4890.21,2825.11 4889.5,2827.5C 4889.19,2824.61 4889.53,2821.95 4890.5,2819.5 Z"/></g>
<g><path style="opacity:1" fill="#99cce9" d="M 2223.5,2874.5 C 2224.47,2876.61 2224.8,2878.94 2224.5,2881.5C 2223.78,2879.44 2223.12,2877.28 2222.5,2875C 2222.73,2874.6 2223.06,2874.43 2223.5,2874.5 Z"/></g>
<g><path style="opacity:1" fill="#99cce9" d="M 2229.5,2940.5 C 2230.22,2942.56 2230.88,2944.72 2231.5,2947C 2231.27,2947.4 2230.94,2947.57 2230.5,2947.5C 2229.53,2945.39 2229.2,2943.06 2229.5,2940.5 Z"/></g>
<g><path style="opacity:1" fill="#99cce9" d="M 4384.5,2947.5 C 4387.98,2946.83 4391.65,2946.5 4395.5,2946.5C 4399.57,2946.51 4403.23,2947.18 4406.5,2948.5C 4399.25,2947.54 4391.92,2947.2 4384.5,2947.5 Z"/></g>
<g><path style="opacity:1" fill="#379ad6" d="M 4384.5,2947.5 C 4391.92,2947.2 4399.25,2947.54 4406.5,2948.5C 4400.47,3035.82 4393.8,3124.32 4386.5,3214C 4386.83,3215 4387.17,3216 4387.5,3217C 4386.83,3220.67 4386.17,3224.33 4385.5,3228C 4385.83,3229 4386.17,3230 4386.5,3231C 4385.83,3234 4385.17,3237 4384.5,3240C 4384.83,3241 4385.17,3242 4385.5,3243C 4384.02,3256.99 4382.69,3270.99 4381.5,3285C 4104.71,3402.73 3827.71,3519.9 3550.5,3636.5C 3549.62,3636.37 3548.96,3636.7 3548.5,3637.5C 3815.5,3638.5 4082.5,3638.83 4349.5,3638.5C 4349.73,3645.35 4349.73,3652.18 4349.5,3659C 4348.83,3662 4348.17,3665 4347.5,3668C 4347.83,3668.33 4348.17,3668.67 4348.5,3669C 4347.83,3672.67 4347.17,3676.33 4346.5,3680C 4338.53,3785.73 4329.86,3890.39 4320.5,3994C 4313.26,4086.22 4305.59,4179.39 4297.5,4273.5C 4296.53,4275.95 4296.19,4278.61 4296.5,4281.5C 4297.33,4285.37 4297,4289.54 4295.5,4294C 4295.31,4299.27 4295.31,4304.27 4295.5,4309C 4294.83,4312 4294.17,4315 4293.5,4318C 4292.71,4337.01 4291.04,4356.68 4288.5,4377C 4288.83,4377.33 4289.17,4377.67 4289.5,4378C 4288.95,4385.93 4287.95,4393.93 4286.5,4402C 4286.83,4402.33 4287.17,4402.67 4287.5,4403C 4286.83,4406.67 4286.17,4410.33 4285.5,4414C 4285.83,4415 4286.17,4416 4286.5,4417C 4285.38,4423.99 4284.38,4430.99 4283.5,4438C 4283.31,4443.27 4283.31,4448.27 4283.5,4453C 4282.83,4456 4282.17,4459 4281.5,4462C 4281.83,4462.33 4282.17,4462.67 4282.5,4463C 4281.5,4470.67 4280.5,4478.33 4279.5,4486C 4279.83,4487 4280.17,4488 4280.5,4489C 4279.5,4496 4278.5,4503 4277.5,4510C 4277.62,4511.27 4277.95,4512.6 4278.5,4514C 4277.83,4516.67 4277.17,4519.33 4276.5,4522C 4276.45,4526.94 4276.45,4531.94 4276.5,4537C 4275.19,4547.72 4273.86,4558.72 4272.5,4570C 4272.83,4570.33 4273.17,4570.67 4273.5,4571C 4271.72,4586.66 4270.06,4602.32 4268.5,4618C 4268.83,4618.33 4269.17,4618.67 4269.5,4619C 4268.5,4627.33 4267.5,4635.67 4266.5,4644C 4266.83,4644.33 4267.17,4644.67 4267.5,4645C 4265.66,4660.46 4263.99,4675.8 4262.5,4691C 4262.83,4691.33 4263.17,4691.67 4263.5,4692C 4027.49,4757.69 3790.82,4823.52 3553.5,4889.5C 3319.39,4821.91 3086.72,4754.08 2855.5,4686C 2847.7,4603.68 2840.7,4520.68 2834.5,4437C 2833.83,4433.33 2833.17,4429.67 2832.5,4426C 2832.5,4421.33 2832.5,4416.67 2832.5,4412C 2831.14,4405.49 2830.14,4399.16 2829.5,4393C 2829.91,4391.44 2830.25,4389.94 2830.5,4388.5C 2830.8,4385.94 2830.47,4383.61 2829.5,4381.5C 2825.02,4332.58 2821.02,4283.58 2817.5,4234.5C 2815.65,4218.61 2813.98,4202.77 2812.5,4187C 2812.83,4186.67 2813.17,4186.33 2813.5,4186C 2812.09,4181.81 2811.75,4177.97 2812.5,4174.5C 2812.81,4171.61 2812.47,4168.95 2811.5,4166.5C 2811.59,4165.5 2811.25,4164.67 2810.5,4164C 2812.1,4163.73 2813.6,4163.23 2815,4162.5C 2927,4162.5 3039,4162.5 3151,4162.5C 3152.76,4163.47 3153.26,4164.64 3152.5,4166C 3158.35,4226.15 3163.35,4286.32 3167.5,4346.5C 3167.06,4346.43 3166.73,4346.6 3166.5,4347C 3167.12,4349.61 3167.79,4352.11 3168.5,4354.5C 3168.82,4359.13 3169.48,4363.96 3170.5,4369C 3169.95,4370.4 3169.62,4371.73 3169.5,4373C 3170.17,4375.67 3170.83,4378.33 3171.5,4381C 3170.95,4382.4 3170.62,4383.73 3170.5,4385C 3171.17,4387.67 3171.83,4390.33 3172.5,4393C 3171.95,4394.4 3171.62,4395.73 3171.5,4397C 3171.95,4403.57 3172.95,4410.24 3174.5,4417C 3173.69,4420.51 3174.02,4424.34 3175.5,4428.5C 3227.8,4443.6 3280.13,4458.27 3332.5,4472.5C 3334.51,4473.92 3336.85,4474.59 3339.5,4474.5C 3341.51,4475.92 3343.85,4476.59 3346.5,4476.5C 3385.72,4486.72 3424.72,4497.39 3463.5,4508.5C 3465.51,4509.92 3467.85,4510.59 3470.5,4510.5C 3501.28,4518.43 3531.94,4526.76 3562.5,4535.5C 3689.1,4496.64 3815.76,4457.97 3942.5,4419.5C 3943.19,4414.95 3943.86,4410.45 3944.5,4406C 3944.67,4399.12 3944.67,4392.45 3944.5,4386C 3945.39,4375.06 3946.39,4363.9 3947.5,4352.5C 3948.48,4349.38 3948.81,4346.04 3948.5,4342.5C 3947.8,4340.93 3947.47,4339.43 3947.5,4338C 3948.17,4334.33 3948.83,4330.67 3949.5,4327C 3949.38,4325.73 3949.05,4324.4 3948.5,4323C 3950.25,4303.3 3951.91,4283.63 3953.5,4264C 3953.38,4262.73 3953.05,4261.4 3952.5,4260C 3953.17,4256.67 3953.83,4253.33 3954.5,4250C 3954.6,4243.33 3954.6,4237 3954.5,4231C 3955.17,4226.67 3955.83,4222.33 3956.5,4218C 3956.38,4216.73 3956.05,4215.4 3955.5,4214C 3956.87,4204.82 3957.87,4195.82 3958.5,4187C 3957.83,4185.25 3957.49,4183.58 3957.5,4182C 3958.73,4172.59 3959.73,4163.26 3960.5,4154C 3960.04,4153.59 3959.71,4153.09 3959.5,4152.5C 3960.91,4136.7 3962.25,4121.2 3963.5,4106C 3963.38,4104.73 3963.05,4103.4 3962.5,4102C 3963.17,4097.67 3963.83,4093.33 3964.5,4089C 3964.17,4088 3963.83,4087 3963.5,4086C 3964.17,4081.67 3964.83,4077.33 3965.5,4073C 3965.17,4072 3964.83,4071 3964.5,4070C 3965.17,4066 3965.83,4062 3966.5,4058C 3965.95,4056.6 3965.62,4055.27 3965.5,4054C 3966.17,4050.67 3966.83,4047.33 3967.5,4044C 3966.95,4042.6 3966.62,4041.27 3966.5,4040C 3967.02,4030.54 3968.02,4021.21 3969.5,4012C 3969.57,4009.82 3969.24,4007.82 3968.5,4006C 3969.74,3996.08 3970.74,3986.41 3971.5,3977C 3575.5,3976.67 3179.5,3976.33 2783.5,3976C 2778.84,3919.18 2775.18,3863.01 2772.5,3807.5C 2772.61,3806.88 2772.94,3806.38 2773.5,3806C 2772.88,3803.39 2772.21,3800.89 2771.5,3798.5C 2769.19,3765.26 2766.86,3732.09 2764.5,3699C 2764.83,3698.67 2765.17,3698.33 2765.5,3698C 2764.83,3693.33 2764.17,3688.67 2763.5,3684C 2763.83,3683.67 2764.17,3683.33 2764.5,3683C 2763.83,3680 2763.17,3677 2762.5,3674C 2763.1,3672.11 2763.43,3670.28 2763.5,3668.5C 2762.33,3658.41 2761.33,3648.57 2760.5,3639C 3038.41,3520.42 3316.74,3402.92 3595.5,3286.5C 3596.76,3286.54 3597.76,3286.04 3598.5,3285C 3594.31,3284.19 3590.31,3284.35 3586.5,3285.5C 3306.44,3287.52 3020.77,3289.52 2729.5,3291.5C 2713.11,3176.73 2696.44,3063.4 2679.5,2951.5C 2679.71,2950.91 2680.04,2950.41 2680.5,2950C 2794.07,2949.83 2907.57,2949.33 3021,2948.5C 3062.12,2948.6 3103.29,2948.93 3144.5,2949.5C 3184.34,2950.14 3224.18,2950.48 3264,2950.5C 3307.6,2949.84 3351.1,2949.17 3394.5,2948.5C 3627.75,2948.62 3875.92,2947.95 4139,2946.5C 4217.17,2946.52 4299,2946.86 4384.5,2947.5 Z"/></g>
<g><path style="opacity:1" fill="#99cce9" d="M 3144.5,2949.5 C 3227.66,2948.5 3311,2948.17 3394.5,2948.5C 3351.1,2949.17 3307.6,2949.84 3264,2950.5C 3224.18,2950.48 3184.34,2950.14 3144.5,2949.5 Z"/></g>
<g><path style="opacity:1" fill="#99cce9" d="M 4874.5,2993.5 C 4874.94,2993.43 4875.27,2993.6 4875.5,2994C 4874.88,2996.28 4874.22,2998.44 4873.5,3000.5C 4873.2,2997.94 4873.53,2995.61 4874.5,2993.5 Z"/></g>
<g><path style="opacity:1" fill="#99cce9" d="M 4861.5,3135.5 C 4861.8,3138.06 4861.47,3140.39 4860.5,3142.5C 4860.06,3142.57 4859.73,3142.4 4859.5,3142C 4860.12,3139.72 4860.78,3137.56 4861.5,3135.5 Z"/></g>
<g><path style="opacity:1" fill="#99cce9" d="M 2248.5,3146.5 C 2249.22,3148.56 2249.88,3150.72 2250.5,3153C 2250.27,3153.4 2249.94,3153.57 2249.5,3153.5C 2248.53,3151.39 2248.2,3149.06 2248.5,3146.5 Z"/></g>
<g><path style="opacity:1" fill="#99cce9" d="M 4857.5,3177.5 C 4857.94,3177.43 4858.27,3177.6 4858.5,3178C 4857.88,3180.28 4857.22,3182.44 4856.5,3184.5C 4856.2,3181.94 4856.53,3179.61 4857.5,3177.5 Z"/></g>
<g><path style="opacity:1" fill="#99cce9" d="M 3586.5,3285.5 C 3590.31,3284.35 3594.31,3284.19 3598.5,3285C 3597.76,3286.04 3596.76,3286.54 3595.5,3286.5C 3592.71,3285.52 3589.71,3285.19 3586.5,3285.5 Z"/></g>
<g><path style="opacity:1" fill="#99cce9" d="M 2265.5,3330.5 C 2266.22,3332.56 2266.88,3334.72 2267.5,3337C 2267.27,3337.4 2266.94,3337.57 2266.5,3337.5C 2265.53,3335.39 2265.2,3333.06 2265.5,3330.5 Z"/></g>
<g><path style="opacity:1" fill="#99cce9" d="M 2269.5,3372.5 C 2270.47,3374.61 2270.8,3376.94 2270.5,3379.5C 2269.78,3377.44 2269.12,3375.28 2268.5,3373C 2268.73,3372.6 2269.06,3372.43 2269.5,3372.5 Z"/></g>
<g><path style="opacity:1" fill="#99cce9" d="M 4838.5,3383.5 C 4838.94,3383.43 4839.27,3383.6 4839.5,3384C 4838.88,3386.28 4838.22,3388.44 4837.5,3390.5C 4837.2,3387.94 4837.53,3385.61 4838.5,3383.5 Z"/></g>
<g><path style="opacity:1" fill="#99cce9" d="M 4825.5,3525.5 C 4825.8,3528.06 4825.47,3530.39 4824.5,3532.5C 4824.06,3532.57 4823.73,3532.4 4823.5,3532C 4824.12,3529.72 4824.78,3527.56 4825.5,3525.5 Z"/></g>
<g><path style="opacity:1" fill="#99cce9" d="M 2286.5,3556.5 C 2287.47,3558.61 2287.8,3560.94 2287.5,3563.5C 2286.78,3561.44 2286.12,3559.28 2285.5,3557C 2285.73,3556.6 2286.06,3556.43 2286.5,3556.5 Z"/></g>
<g><path style="opacity:1" fill="#99cce9" d="M 4818.5,3599.5 C 4818.94,3599.43 4819.27,3599.6 4819.5,3600C 4818.88,3602.61 4818.21,3605.11 4817.5,3607.5C 4817.19,3604.61 4817.53,3601.95 4818.5,3599.5 Z"/></g>
<g><path style="opacity:1" fill="#99cce9" d="M 3550.5,3636.5 C 3816.83,3637.17 4083.17,3637.83 4349.5,3638.5C 4082.5,3638.83 3815.5,3638.5 3548.5,3637.5C 3548.96,3636.7 3549.62,3636.37 3550.5,3636.5 Z"/></g>
<g><path style="opacity:1" fill="#99cce9" d="M 2298.5,3688.5 C 2299.22,3690.56 2299.88,3692.72 2300.5,3695C 2300.27,3695.4 2299.94,3695.57 2299.5,3695.5C 2298.53,3693.39 2298.2,3691.06 2298.5,3688.5 Z"/></g>
<g><path style="opacity:1" fill="#99cce9" d="M 2306.5,3772.5 C 2307.47,3774.95 2307.81,3777.61 2307.5,3780.5C 2306.79,3778.11 2306.12,3775.61 2305.5,3773C 2305.73,3772.6 2306.06,3772.43 2306.5,3772.5 Z"/></g>
<g><path style="opacity:1" fill="#99cce9" d="M 4802.5,3773.5 C 4802.94,3773.43 4803.27,3773.6 4803.5,3774C 4802.88,3776.28 4802.22,3778.44 4801.5,3780.5C 4801.2,3777.94 4801.53,3775.61 4802.5,3773.5 Z"/></g>
<g><path style="opacity:1" fill="#99cce9" d="M 2771.5,3798.5 C 2772.21,3800.89 2772.88,3803.39 2773.5,3806C 2772.94,3806.38 2772.61,3806.88 2772.5,3807.5C 2771.52,3804.71 2771.19,3801.71 2771.5,3798.5 Z"/></g>
<g><path style="opacity:1" fill="#99cce9" d="M 4794.5,3859.5 C 4794.94,3859.43 4795.27,3859.6 4795.5,3860C 4794.88,3862.28 4794.22,3864.44 4793.5,3866.5C 4793.2,3863.94 4793.53,3861.61 4794.5,3859.5 Z"/></g>
<g><path style="opacity:1" fill="#99cce9" d="M 4789.5,3915.5 C 4789.8,3918.06 4789.47,3920.39 4788.5,3922.5C 4788.06,3922.57 4787.73,3922.4 4787.5,3922C 4788.12,3919.72 4788.78,3917.56 4789.5,3915.5 Z"/></g>
<g><path style="opacity:1" fill="#99cce9" d="M 4785.5,3957.5 C 4785.94,3957.43 4786.27,3957.6 4786.5,3958C 4785.88,3960.28 4785.22,3962.44 4784.5,3964.5C 4784.2,3961.94 4784.53,3959.61 4785.5,3957.5 Z"/></g>
<g><path style="opacity:1" fill="#99cce9" d="M 2325.5,3978.5 C 2326.47,3980.95 2326.81,3983.61 2326.5,3986.5C 2325.79,3984.11 2325.12,3981.61 2324.5,3979C 2324.73,3978.6 2325.06,3978.43 2325.5,3978.5 Z"/></g>
<g><path style="opacity:1" fill="#99cce9" d="M 4783.5,3979.5 C 4783.94,3979.43 4784.27,3979.6 4784.5,3980C 4783.88,3982.28 4783.22,3984.44 4782.5,3986.5C 4782.2,3983.94 4782.53,3981.61 4783.5,3979.5 Z"/></g>
<g><path style="opacity:1" fill="#99cce9" d="M 4782.5,3989.5 C 4782.94,3989.43 4783.27,3989.6 4783.5,3990C 4782.88,3992.61 4782.21,3995.11 4781.5,3997.5C 4781.19,3994.61 4781.53,3991.95 4782.5,3989.5 Z"/></g>
<g><path style="opacity:1" fill="#99cce9" d="M 2811.5,4166.5 C 2812.47,4168.95 2812.81,4171.61 2812.5,4174.5C 2811.79,4172.11 2811.12,4169.61 2810.5,4167C 2810.73,4166.6 2811.06,4166.43 2811.5,4166.5 Z"/></g>
<g><path style="opacity:1" fill="#99cce9" d="M 4765.5,4173.5 C 4765.94,4173.43 4766.27,4173.6 4766.5,4174C 4765.88,4176.61 4765.21,4179.11 4764.5,4181.5C 4764.19,4178.61 4764.53,4175.95 4765.5,4173.5 Z"/></g>
<g><path style="opacity:1" fill="#99cce9" d="M 4297.5,4273.5 C 4297.94,4273.43 4298.27,4273.6 4298.5,4274C 4297.88,4276.61 4297.21,4279.11 4296.5,4281.5C 4296.19,4278.61 4296.53,4275.95 4297.5,4273.5 Z"/></g>
<g><path style="opacity:1" fill="#99cce9" d="M 4753.5,4305.5 C 4753.8,4308.06 4753.47,4310.39 4752.5,4312.5C 4752.06,4312.57 4751.73,4312.4 4751.5,4312C 4752.12,4309.72 4752.78,4307.56 4753.5,4305.5 Z"/></g>
<g><path style="opacity:1" fill="#99cce9" d="M 3948.5,4342.5 C 3948.81,4346.04 3948.48,4349.38 3947.5,4352.5C 3947.06,4352.57 3946.73,4352.4 3946.5,4352C 3947.13,4348.73 3947.8,4345.56 3948.5,4342.5 Z"/></g>
<g><path style="opacity:1" fill="#99cce9" d="M 3167.5,4346.5 C 3168.47,4348.95 3168.81,4351.61 3168.5,4354.5C 3167.79,4352.11 3167.12,4349.61 3166.5,4347C 3166.73,4346.6 3167.06,4346.43 3167.5,4346.5 Z"/></g>
<g><path style="opacity:1" fill="#99cce9" d="M 4747.5,4369.5 C 4747.94,4369.43 4748.27,4369.6 4748.5,4370C 4747.88,4372.28 4747.22,4374.44 4746.5,4376.5C 4746.2,4373.94 4746.53,4371.61 4747.5,4369.5 Z"/></g>
<g><path style="opacity:1" fill="#99cce9" d="M 2829.5,4381.5 C 2830.47,4383.61 2830.8,4385.94 2830.5,4388.5C 2829.78,4386.78 2829.11,4384.95 2828.5,4383C 2829.06,4382.62 2829.39,4382.12 2829.5,4381.5 Z"/></g>
<g><path style="opacity:1" fill="#99cce9" d="M 3332.5,4472.5 C 3335.15,4472.41 3337.49,4473.08 3339.5,4474.5C 3336.85,4474.59 3334.51,4473.92 3332.5,4472.5 Z"/></g>
<g><path style="opacity:1" fill="#99cce9" d="M 3339.5,4474.5 C 3342.15,4474.41 3344.49,4475.08 3346.5,4476.5C 3343.85,4476.59 3341.51,4475.92 3339.5,4474.5 Z"/></g>
<g><path style="opacity:1" fill="#99cce9" d="M 2372.5,4488.5 C 2373.47,4490.61 2373.8,4492.94 2373.5,4495.5C 2372.78,4493.44 2372.12,4491.28 2371.5,4489C 2371.73,4488.6 2372.06,4488.43 2372.5,4488.5 Z"/></g>
<g><path style="opacity:1" fill="#99cce9" d="M 3463.5,4508.5 C 3466.15,4508.41 3468.49,4509.08 3470.5,4510.5C 3467.85,4510.59 3465.51,4509.92 3463.5,4508.5 Z"/></g>
<g><path style="opacity:1" fill="#99cce9" d="M 4732.5,4531.5 C 4732.94,4531.43 4733.27,4531.6 4733.5,4532C 4732.88,4534.28 4732.22,4536.44 4731.5,4538.5C 4731.2,4535.94 4731.53,4533.61 4732.5,4531.5 Z"/></g>
<g><path style="opacity:1" fill="#99cce9" d="M 2377.5,4542.5 C 2378.47,4544.61 2378.8,4546.94 2378.5,4549.5C 2377.78,4547.44 2377.12,4545.28 2376.5,4543C 2376.73,4542.6 2377.06,4542.43 2377.5,4542.5 Z"/></g>
<g><path style="opacity:1" fill="#99cce9" d="M 4730.5,4553.5 C 4730.94,4553.43 4731.27,4553.6 4731.5,4554C 4730.88,4556.28 4730.22,4558.44 4729.5,4560.5C 4729.2,4557.94 4729.53,4555.61 4730.5,4553.5 Z"/></g>
<g><path style="opacity:1" fill="#99cce9" d="M 2379.5,4564.5 C 2380.47,4566.61 2380.8,4568.94 2380.5,4571.5C 2379.02,4569.26 2378.68,4566.93 2379.5,4564.5 Z"/></g>
<g><path style="opacity:1" fill="#99cce9" d="M 4720.5,4661.5 C 4720.94,4661.43 4721.27,4661.6 4721.5,4662C 4720.88,4664.28 4720.22,4666.44 4719.5,4668.5C 4719.2,4665.94 4719.53,4663.61 4720.5,4661.5 Z"/></g>
<g><path style="opacity:1" fill="#99cce9" d="M 4703.5,4845.5 C 4703.94,4845.43 4704.27,4845.6 4704.5,4846C 4703.88,4848.28 4703.22,4850.44 4702.5,4852.5C 4702.2,4849.94 4702.53,4847.61 4703.5,4845.5 Z"/></g>
<g><path style="opacity:1" fill="#99cce9" d="M 2406.5,4856.5 C 2407.47,4858.95 2407.81,4861.61 2407.5,4864.5C 2406.79,4862.11 2406.12,4859.61 2405.5,4857C 2405.73,4856.6 2406.06,4856.43 2406.5,4856.5 Z"/></g>
<g><path style="opacity:1" fill="#99cce9" d="M 4693.5,4953.5 C 4693.94,4953.43 4694.27,4953.6 4694.5,4954C 4693.88,4956.61 4693.21,4959.11 4692.5,4961.5C 4692.19,4958.61 4692.53,4955.95 4693.5,4953.5 Z"/></g>
<g><path style="opacity:1" fill="#99cce9" d="M 4686.5,5029.5 C 4686.94,5029.43 4687.27,5029.6 4687.5,5030C 4686.88,5032.28 4686.22,5034.44 4685.5,5036.5C 4685.2,5033.94 4685.53,5031.61 4686.5,5029.5 Z"/></g>
<g><path style="opacity:1" fill="#99cce9" d="M 4684.5,5051.5 C 4684.94,5051.43 4685.27,5051.6 4685.5,5052C 4684.88,5054.28 4684.22,5056.44 4683.5,5058.5C 4683.2,5055.94 4683.53,5053.61 4684.5,5051.5 Z"/></g>
<g><path style="opacity:1" fill="#99cce9" d="M 2425.5,5064.5 C 2426.22,5066.56 2426.88,5068.72 2427.5,5071C 2427.27,5071.4 2426.94,5071.57 2426.5,5071.5C 2425.53,5069.39 2425.2,5067.06 2425.5,5064.5 Z"/></g>
<g><path style="opacity:1" fill="#99cce9" d="M 4640.5,5189.5 C 4638.49,5190.92 4636.15,5191.59 4633.5,5191.5C 4635.51,5190.08 4637.85,5189.41 4640.5,5189.5 Z"/></g>
<g><path style="opacity:1" fill="#99cce9" d="M 2479.5,5192.5 C 2482.15,5192.41 2484.49,5193.08 2486.5,5194.5C 2483.85,5194.59 2481.51,5193.92 2479.5,5192.5 Z"/></g>
<g><path style="opacity:1" fill="#99cce9" d="M 2732.5,5260.5 C 2735.15,5260.41 2737.49,5261.08 2739.5,5262.5C 2736.85,5262.59 2734.51,5261.92 2732.5,5260.5 Z"/></g>
<g><path style="opacity:1" fill="#99cce9" d="M 2739.5,5262.5 C 2742.15,5262.41 2744.49,5263.08 2746.5,5264.5C 2743.85,5264.59 2741.51,5263.92 2739.5,5262.5 Z"/></g>
<g><path style="opacity:1" fill="#99cce9" d="M 2925.5,5312.5 C 2928.15,5312.41 2930.49,5313.08 2932.5,5314.5C 2929.85,5314.59 2927.51,5313.92 2925.5,5312.5 Z"/></g>
<g><path style="opacity:1" fill="#99cce9" d="M 3311.5,5416.5 C 3314.15,5416.41 3316.49,5417.08 3318.5,5418.5C 3315.85,5418.59 3313.51,5417.92 3311.5,5416.5 Z"/></g>
<g><path style="opacity:1" fill="#99cce9" d="M 3378.5,5434.5 C 3381.15,5434.41 3383.49,5435.08 3385.5,5436.5C 3382.85,5436.59 3380.51,5435.92 3378.5,5434.5 Z"/></g>
</svg>
