<?xml version="1.0" encoding="UTF-8"?>
<!DOCTYPE svg PUBLIC "-//W3C//DTD SVG 1.1//EN" "http://www.w3.org/Graphics/SVG/1.1/DTD/svg11.dtd">
<svg xmlns="http://www.w3.org/2000/svg" version="1.1" width="360px" height="347px" style="shape-rendering:geometricPrecision; text-rendering:geometricPrecision; image-rendering:optimizeQuality; fill-rule:evenodd; clip-rule:evenodd" xmlns:xlink="http://www.w3.org/1999/xlink">
<g><path style="opacity:0.149" fill="#a7a7a7" d="M 266.5,26.5 C 209.499,26.3333 152.499,26.5 95.5,27C 91.2486,28.1946 86.9152,28.6946 82.5,28.5C 85.9032,27.0749 89.5698,26.2415 93.5,26C 151.335,25.1681 209.001,25.3348 266.5,26.5 Z"/></g>
<g><path style="opacity:1" fill="#1e1e1e" d="M 266.5,26.5 C 274.021,28.5975 281.688,30.5975 289.5,32.5C 301.724,38.0571 311.057,46.7238 317.5,58.5C 317.025,61.3126 318.025,63.3126 320.5,64.5C 320.765,69.8994 322.098,74.8994 324.5,79.5C 325.488,138.804 325.822,198.137 325.5,257.5C 324.883,257.611 324.383,257.944 324,258.5C 323.265,262.813 322.765,267.147 322.5,271.5C 318.659,277.849 315.325,284.516 312.5,291.5C 309.221,295.446 305.554,299.112 301.5,302.5C 296.326,305.252 291.326,308.252 286.5,311.5C 285.432,312.434 284.099,312.768 282.5,312.5C 279.848,312.41 277.515,313.076 275.5,314.5C 214.844,315.632 154.177,315.799 93.5,315C 88.0952,314.472 82.7619,313.639 77.5,312.5C 70.79,311.314 65.1233,308.314 60.5,303.5C 57.1053,299.102 53.1053,295.436 48.5,292.5C 47.1103,291.101 46.1103,289.434 45.5,287.5C 40.2605,277.162 37.0939,266.162 36,254.5C 35.3333,198.167 35.3333,141.833 36,85.5C 37.0141,78.0333 38.5141,70.6999 40.5,63.5C 42.9236,60.9922 44.5903,57.9922 45.5,54.5C 50.1387,49.5261 54.8053,44.5261 59.5,39.5C 61.9505,36.7232 64.9505,34.7232 68.5,33.5C 73.5166,32.6072 78.1832,30.9405 82.5,28.5C 86.9152,28.6946 91.2486,28.1946 95.5,27C 152.499,26.5 209.499,26.3333 266.5,26.5 Z"/></g>
<g><path style="opacity:0.925" fill="#908f90" d="M 266.5,26.5 C 274.801,26.4907 282.467,28.4907 289.5,32.5C 281.688,30.5975 274.021,28.5975 266.5,26.5 Z"/></g>
<g><path style="opacity:0.776" fill="#818082" d="M 82.5,28.5 C 78.1832,30.9405 73.5166,32.6072 68.5,33.5C 72.6642,30.6657 77.3308,28.999 82.5,28.5 Z"/></g>
<g><path style="opacity:0.624" fill="#888788" d="M 59.5,39.5 C 54.8053,44.5261 50.1387,49.5261 45.5,54.5C 48.7831,48.2166 53.4497,43.2166 59.5,39.5 Z"/></g>
<g><path style="opacity:0.412" fill="#a2a2a3" d="M 45.5,54.5 C 44.5903,57.9922 42.9236,60.9922 40.5,63.5C 40.9399,59.7485 42.6066,56.7485 45.5,54.5 Z"/></g>
<g><path style="opacity:0.275" fill="#acabac" d="M 317.5,58.5 C 319.008,60.1815 320.008,62.1815 320.5,64.5C 318.025,63.3126 317.025,61.3126 317.5,58.5 Z"/></g>
<g><path style="opacity:0.757" fill="#999899" d="M 320.5,64.5 C 322.905,69.1119 324.238,74.1119 324.5,79.5C 322.098,74.8994 320.765,69.8994 320.5,64.5 Z"/></g>
<g><path style="opacity:1" fill="#f34d1c" d="M 180.5,80.5 C 180.5,100.833 180.5,121.167 180.5,141.5C 168.833,141.5 157.167,141.5 145.5,141.5C 129.304,137.799 120.304,127.633 118.5,111C 119.63,97.07 126.63,87.4033 139.5,82C 153.107,80.5734 166.774,80.0734 180.5,80.5 Z"/></g>
<g><path style="opacity:1" fill="#fe7262" d="M 180.5,80.5 C 192.838,80.3335 205.171,80.5001 217.5,81C 239.947,89.6524 246.447,105.152 237,127.5C 231.663,135.588 224.163,140.255 214.5,141.5C 211.833,141.5 209.167,141.5 206.5,141.5C 197.833,141.5 189.167,141.5 180.5,141.5C 180.5,121.167 180.5,100.833 180.5,80.5 Z"/></g>
<g><path style="opacity:0.573" fill="#a5a5a5" d="M 40.5,63.5 C 38.5141,70.6999 37.0141,78.0333 36,85.5C 35.3333,141.833 35.3333,198.167 36,254.5C 37.0939,266.162 40.2605,277.162 45.5,287.5C 40.7665,281.355 37.5999,274.355 36,266.5C 33.0663,205.527 32.733,144.527 35,83.5C 35.6122,76.3726 37.4456,69.7059 40.5,63.5 Z"/></g>
<g><path style="opacity:1" fill="#a358fd" d="M 145.5,141.5 C 157.167,141.5 168.833,141.5 180.5,141.5C 180.5,149.5 180.5,157.5 180.5,165.5C 180.5,169.5 180.5,173.5 180.5,177.5C 180.5,185.833 180.5,194.167 180.5,202.5C 169.5,202.5 158.5,202.5 147.5,202.5C 147.167,202.5 146.833,202.5 146.5,202.5C 125.759,198.244 116.926,185.578 120,164.5C 123.978,151.683 132.478,144.016 145.5,141.5 Z"/></g>
<g><path style="opacity:1" fill="#1dbdfd" d="M 206.5,141.5 C 209.167,141.5 211.833,141.5 214.5,141.5C 236.621,147.73 244.787,162.064 239,184.5C 231.135,199.014 218.968,204.847 202.5,202C 190.667,197.677 183.333,189.51 180.5,177.5C 180.5,173.5 180.5,169.5 180.5,165.5C 184.37,152.296 193.037,144.296 206.5,141.5 Z"/></g>
<g><path style="opacity:1" fill="#1c1b1b" d="M 180.5,141.5 C 189.167,141.5 197.833,141.5 206.5,141.5C 193.037,144.296 184.37,152.296 180.5,165.5C 180.5,157.5 180.5,149.5 180.5,141.5 Z"/></g>
<g><path style="opacity:1" fill="#03d182" d="M 146.5,202.5 C 146.833,202.5 147.167,202.5 147.5,202.5C 158.321,203.495 169.321,203.828 180.5,203.5C 180.667,214.505 180.5,225.505 180,236.5C 176.94,253.894 166.606,263.227 149,264.5C 125.241,260.08 115.908,246.08 121,222.5C 126.074,211.389 134.574,204.722 146.5,202.5 Z"/></g>
<g><path style="opacity:0.651" fill="#a0a0a1" d="M 325.5,257.5 C 325.246,262.444 324.246,267.111 322.5,271.5C 322.765,267.147 323.265,262.813 324,258.5C 324.383,257.944 324.883,257.611 325.5,257.5 Z"/></g>
<g><path style="opacity:0.8" fill="#9b9b9c" d="M 322.5,271.5 C 321.261,279.312 317.928,285.978 312.5,291.5C 315.325,284.516 318.659,277.849 322.5,271.5 Z"/></g>
<g><path style="opacity:0.647" fill="#908f91" d="M 48.5,292.5 C 53.1053,295.436 57.1053,299.102 60.5,303.5C 55.8947,300.564 51.8947,296.898 48.5,292.5 Z"/></g>
<g><path style="opacity:0.302" fill="#b4b3b4" d="M 301.5,302.5 C 297.338,306.754 292.338,309.754 286.5,311.5C 291.326,308.252 296.326,305.252 301.5,302.5 Z"/></g>
<g><path style="opacity:0.2" fill="#bdbdbd" d="M 282.5,312.5 C 280.485,313.924 278.152,314.59 275.5,314.5C 277.515,313.076 279.848,312.41 282.5,312.5 Z"/></g>
<g><path style="opacity:0.678" fill="#747376" d="M 77.5,312.5 C 82.7619,313.639 88.0952,314.472 93.5,315C 154.177,315.799 214.844,315.632 275.5,314.5C 273.782,315.224 271.948,315.891 270,316.5C 210.04,316.658 149.873,316.492 89.5,316C 85.1101,315.741 81.1101,314.574 77.5,312.5 Z"/></g>
</svg>
