<?xml version="1.0" encoding="UTF-8"?>
<!DOCTYPE svg PUBLIC "-//W3C//DTD SVG 1.1//EN" "http://www.w3.org/Graphics/SVG/1.1/DTD/svg11.dtd">
<svg xmlns="http://www.w3.org/2000/svg" version="1.1" width="352px" height="340px" style="shape-rendering:geometricPrecision; text-rendering:geometricPrecision; image-rendering:optimizeQuality; fill-rule:evenodd; clip-rule:evenodd" xmlns:xlink="http://www.w3.org/1999/xlink">
<g><path style="opacity:1" fill="#fb0092" d="M 75.5,-0.5 C 75.8333,-0.5 76.1667,-0.5 76.5,-0.5C 84.8333,8.16667 93.1667,16.8333 101.5,25.5C 101.631,26.3764 101.298,27.0431 100.5,27.5C 92.1766,27.3383 83.8433,27.3383 75.5,27.5C 75.5,18.1667 75.5,8.83333 75.5,-0.5 Z"/></g>
<g><path style="opacity:1" fill="#8d0dff" d="M 274.5,-0.5 C 274.833,-0.5 275.167,-0.5 275.5,-0.5C 275.5,12.5 275.5,25.5 275.5,38.5C 262.655,37.6892 249.989,37.3559 237.5,37.5C 249.833,24.8333 262.167,12.1667 274.5,-0.5 Z"/></g>
<g><path style="opacity:1" fill="#f8009c" d="M 101.5,25.5 C 109.5,32.8333 117.167,40.5 124.5,48.5C 108.332,49.397 91.9983,49.7304 75.5,49.5C 75.5,42.1667 75.5,34.8333 75.5,27.5C 83.8433,27.3383 92.1766,27.3383 100.5,27.5C 101.298,27.0431 101.631,26.3764 101.5,25.5 Z"/></g>
<g><path style="opacity:0.992" fill="#f500a5" d="M 124.5,48.5 C 129.833,53.1667 134.833,58.1667 139.5,63.5C 118.167,63.5 96.8333,63.5 75.5,63.5C 75.5,58.8333 75.5,54.1667 75.5,49.5C 91.9983,49.7304 108.332,49.397 124.5,48.5 Z"/></g>
<g><path style="opacity:0.991" fill="#800bff" d="M 237.5,37.5 C 249.989,37.3559 262.655,37.6892 275.5,38.5C 275.5,48.1667 275.5,57.8333 275.5,67.5C 252.548,68.1211 229.548,68.4544 206.5,68.5C 216.5,57.8333 226.833,47.5 237.5,37.5 Z"/></g>
<g><path style="opacity:1" fill="#f401aa" d="M 75.5,63.5 C 96.8333,63.5 118.167,63.5 139.5,63.5C 141.833,65.1667 143.833,67.1667 145.5,69.5C 122.358,70.0309 99.0248,70.0309 75.5,69.5C 75.5,67.5 75.5,65.5 75.5,63.5 Z"/></g>
<g><path style="opacity:0.994" fill="#f200b1" d="M 75.5,69.5 C 99.0248,70.0309 122.358,70.0309 145.5,69.5C 152.167,75.5 158.5,81.8333 164.5,88.5C 134.833,88.5 105.167,88.5 75.5,88.5C 75.5,82.1667 75.5,75.8333 75.5,69.5 Z"/></g>
<g><path style="opacity:0.995" fill="#7509ff" d="M 275.5,67.5 C 275.5,75.8333 275.5,84.1667 275.5,92.5C 244.326,92.2498 212.993,92.5831 181.5,93.5C 189.5,84.8333 197.833,76.5 206.5,68.5C 229.548,68.4544 252.548,68.1211 275.5,67.5 Z"/></g>
<g><path style="opacity:1" fill="#ef01b9" d="M 75.5,88.5 C 105.167,88.5 134.833,88.5 164.5,88.5C 168.167,91.8333 171.833,95.1667 175.5,98.5C 174.833,99.8333 173.833,100.833 172.5,101.5C 139.702,100.57 107.368,100.57 75.5,101.5C 75.5,97.1667 75.5,92.8333 75.5,88.5 Z"/></g>
<g><path style="opacity:1" fill="#ec00be" d="M 172.5,101.5 C 169.5,105.167 166.167,108.5 162.5,111.5C 133.426,111.377 104.426,111.71 75.5,112.5C 75.5,108.833 75.5,105.167 75.5,101.5C 107.368,100.57 139.702,100.57 172.5,101.5 Z"/></g>
<g><path style="opacity:1" fill="#6b09fe" d="M 275.5,92.5 C 275.5,95.1667 275.5,97.8333 275.5,100.5C 270.463,105.539 265.129,110.206 259.5,114.5C 259.631,113.624 259.298,112.957 258.5,112.5C 258.235,115.677 256.735,116.01 254,113.5C 253.667,114.167 253.333,114.833 253,115.5C 252.167,114.5 251.333,113.5 250.5,112.5C 250.235,115.677 248.735,116.01 246,113.5C 245.667,114.167 245.333,114.833 245,115.5C 244.167,114.5 243.333,113.5 242.5,112.5C 242.235,115.677 240.735,116.01 238,113.5C 237.667,114.167 237.333,114.833 237,115.5C 236.167,114.5 235.333,113.5 234.5,112.5C 234.235,115.677 232.735,116.01 230,113.5C 229.667,114.167 229.333,114.833 229,115.5C 228.167,114.5 227.333,113.5 226.5,112.5C 226.235,115.677 224.735,116.01 222,113.5C 221.667,114.167 221.333,114.833 221,115.5C 220.167,114.5 219.333,113.5 218.5,112.5C 218.235,115.677 216.735,116.01 214,113.5C 213.667,114.167 213.333,114.833 213,115.5C 212.167,114.5 211.333,113.5 210.5,112.5C 210.235,115.677 208.735,116.01 206,113.5C 205.667,114.167 205.333,114.833 205,115.5C 204.167,114.5 203.333,113.5 202.5,112.5C 202.235,115.677 200.735,116.01 198,113.5C 197.667,114.167 197.333,114.833 197,115.5C 196.167,114.5 195.333,113.5 194.5,112.5C 194.235,115.677 192.735,116.01 190,113.5C 189.667,114.167 189.333,114.833 189,115.5C 188.167,114.5 187.333,113.5 186.5,112.5C 186.235,115.677 184.735,116.01 182,113.5C 181.667,114.167 181.333,114.833 181,115.5C 180.167,114.5 179.333,113.5 178.5,112.5C 178.235,115.677 176.735,116.01 174,113.5C 173.667,114.167 173.333,114.833 173,115.5C 172.167,114.5 171.333,113.5 170.5,112.5C 170.235,115.677 168.735,116.01 166,113.5C 165.667,114.167 165.333,114.833 165,115.5C 164.148,114.429 163.315,113.429 162.5,112.5C 162.5,112.167 162.5,111.833 162.5,111.5C 166.167,108.5 169.5,105.167 172.5,101.5C 173.833,100.833 174.833,99.8333 175.5,98.5C 177.5,96.8333 179.5,95.1667 181.5,93.5C 212.993,92.5831 244.326,92.2498 275.5,92.5 Z"/></g>
<g><path style="opacity:1" fill="#ea00c4" d="M 162.5,111.5 C 162.5,111.833 162.5,112.167 162.5,112.5C 158.167,116.5 153.833,120.5 149.5,124.5C 124.933,124.433 100.267,124.433 75.5,124.5C 75.5,120.5 75.5,116.5 75.5,112.5C 104.426,111.71 133.426,111.377 162.5,111.5 Z"/></g>
<g><path style="opacity:1" fill="#0b8bff" d="M 275.5,100.5 C 275.5,108.167 275.5,115.833 275.5,123.5C 267.648,123.825 259.982,123.492 252.5,122.5C 254.833,119.833 257.167,117.167 259.5,114.5C 265.129,110.206 270.463,105.539 275.5,100.5 Z"/></g>
<g><path style="opacity:1" fill="#6206fe" d="M 162.5,112.5 C 163.315,113.429 164.148,114.429 165,115.5C 165.333,114.833 165.667,114.167 166,113.5C 168.735,116.01 170.235,115.677 170.5,112.5C 171.333,113.5 172.167,114.5 173,115.5C 173.333,114.833 173.667,114.167 174,113.5C 176.735,116.01 178.235,115.677 178.5,112.5C 179.333,113.5 180.167,114.5 181,115.5C 181.333,114.833 181.667,114.167 182,113.5C 184.735,116.01 186.235,115.677 186.5,112.5C 187.333,113.5 188.167,114.5 189,115.5C 189.333,114.833 189.667,114.167 190,113.5C 192.735,116.01 194.235,115.677 194.5,112.5C 195.333,113.5 196.167,114.5 197,115.5C 197.333,114.833 197.667,114.167 198,113.5C 200.735,116.01 202.235,115.677 202.5,112.5C 203.333,113.5 204.167,114.5 205,115.5C 205.333,114.833 205.667,114.167 206,113.5C 208.735,116.01 210.235,115.677 210.5,112.5C 211.333,113.5 212.167,114.5 213,115.5C 213.333,114.833 213.667,114.167 214,113.5C 216.735,116.01 218.235,115.677 218.5,112.5C 219.333,113.5 220.167,114.5 221,115.5C 221.333,114.833 221.667,114.167 222,113.5C 224.735,116.01 226.235,115.677 226.5,112.5C 227.333,113.5 228.167,114.5 229,115.5C 229.333,114.833 229.667,114.167 230,113.5C 232.735,116.01 234.235,115.677 234.5,112.5C 235.333,113.5 236.167,114.5 237,115.5C 237.333,114.833 237.667,114.167 238,113.5C 240.735,116.01 242.235,115.677 242.5,112.5C 243.333,113.5 244.167,114.5 245,115.5C 245.333,114.833 245.667,114.167 246,113.5C 248.735,116.01 250.235,115.677 250.5,112.5C 251.333,113.5 252.167,114.5 253,115.5C 253.333,114.833 253.667,114.167 254,113.5C 256.735,116.01 258.235,115.677 258.5,112.5C 259.298,112.957 259.631,113.624 259.5,114.5C 257.167,117.167 254.833,119.833 252.5,122.5C 246.13,127.869 240.463,133.869 235.5,140.5C 235.167,140.5 234.833,140.5 234.5,140.5C 201.667,139.736 168.667,139.403 135.5,139.5C 136.167,138.5 136.833,137.5 137.5,136.5C 141.833,132.833 145.833,128.833 149.5,124.5C 153.833,120.5 158.167,116.5 162.5,112.5 Z"/></g>
<g><path style="opacity:1" fill="#e800ca" d="M 149.5,124.5 C 145.833,128.833 141.833,132.833 137.5,136.5C 116.932,137.365 96.2657,137.365 75.5,136.5C 75.5,132.5 75.5,128.5 75.5,124.5C 100.267,124.433 124.933,124.433 149.5,124.5 Z"/></g>
<g><path style="opacity:1" fill="#0480ff" d="M 252.5,122.5 C 259.982,123.492 267.648,123.825 275.5,123.5C 275.5,129.167 275.5,134.833 275.5,140.5C 262.2,140.3 248.867,140.3 235.5,140.5C 240.463,133.869 246.13,127.869 252.5,122.5 Z"/></g>
<g><path style="opacity:1" fill="#e600d0" d="M 75.5,136.5 C 96.2657,137.365 116.932,137.365 137.5,136.5C 136.833,137.5 136.167,138.5 135.5,139.5C 132.167,142.5 128.833,145.5 125.5,148.5C 109,147.5 92.3335,147.5 75.5,148.5C 75.5,144.5 75.5,140.5 75.5,136.5 Z"/></g>
<g><path style="opacity:1" fill="#037aff" d="M 275.5,140.5 C 275.5,142.5 275.5,144.5 275.5,146.5C 260.912,146.331 246.412,146.664 232,147.5C 231.005,146.934 230.172,146.267 229.5,145.5C 230.833,143.5 232.5,141.833 234.5,140.5C 234.833,140.5 235.167,140.5 235.5,140.5C 248.867,140.3 262.2,140.3 275.5,140.5 Z"/></g>
<g><path style="opacity:1" fill="#0173fe" d="M 229.5,145.5 C 230.172,146.267 231.005,146.934 232,147.5C 246.412,146.664 260.912,146.331 275.5,146.5C 275.5,151.833 275.5,157.167 275.5,162.5C 263.322,162.172 251.322,162.505 239.5,163.5C 234.833,159.167 230.167,154.833 225.5,150.5C 226.08,148.251 227.413,146.585 229.5,145.5 Z"/></g>
<g><path style="opacity:1" fill="#e400d7" d="M 125.5,148.5 C 125.5,149.167 125.5,149.833 125.5,150.5C 121.5,154.167 117.5,157.833 113.5,161.5C 100.94,162.379 88.2731,162.379 75.5,161.5C 75.5,157.167 75.5,152.833 75.5,148.5C 92.3335,147.5 109,147.5 125.5,148.5 Z"/></g>
<g><path style="opacity:1" fill="#5502fe" d="M 135.5,139.5 C 168.667,139.403 201.667,139.736 234.5,140.5C 232.5,141.833 230.833,143.5 229.5,145.5C 227.413,146.585 226.08,148.251 225.5,150.5C 208.854,166.812 192.187,183.145 175.5,199.5C 158.813,183.145 142.146,166.812 125.5,150.5C 125.5,149.833 125.5,149.167 125.5,148.5C 128.833,145.5 132.167,142.5 135.5,139.5 Z"/></g>
<g><path style="opacity:0.982" fill="#e100e0" d="M 75.5,161.5 C 88.2731,162.379 100.94,162.379 113.5,161.5C 101.202,174.298 88.702,186.965 76,199.5C 75.5001,186.838 75.3334,174.171 75.5,161.5 Z"/></g>
<g><path style="opacity:1" fill="#0068fe" d="M 275.5,162.5 C 275.5,168.5 275.5,174.5 275.5,180.5C 271.073,180.37 266.573,180.037 262,179.5C 260.378,180.099 258.878,180.766 257.5,181.5C 251.167,175.833 245.167,169.833 239.5,163.5C 251.322,162.505 263.322,162.172 275.5,162.5 Z"/></g>
<g><path style="opacity:1" fill="#005dfe" d="M 275.5,180.5 C 275.666,186.842 275.5,193.175 275,199.5C 268.964,193.631 263.13,187.631 257.5,181.5C 258.878,180.766 260.378,180.099 262,179.5C 266.573,180.037 271.073,180.37 275.5,180.5 Z"/></g>
<g><path style="opacity:0.906" fill="#000000" d="M 204.5,247.5 C 215.339,246.837 220.172,251.837 219,262.5C 214.003,269.889 207.503,271.389 199.5,267C 194.273,258.487 195.94,251.987 204.5,247.5 Z"/></g>
<g><path style="opacity:0.945" fill="#000000" d="M -0.5,253.5 C 6.53157,253.17 13.5316,253.503 20.5,254.5C 27.3333,268.833 34.1667,283.167 41,297.5C 48.6939,283.445 55.8606,269.112 62.5,254.5C 69.4684,253.503 76.4684,253.17 83.5,253.5C 83.5,281.5 83.5,309.5 83.5,337.5C 76.5,337.5 69.5,337.5 62.5,337.5C 62.6666,323.496 62.4999,309.496 62,295.5C 58.1667,303.167 54.3333,310.833 50.5,318.5C 44.5,319.833 38.5,319.833 32.5,318.5C 28.6667,310.833 24.8333,303.167 21,295.5C 20.5001,309.496 20.3334,323.496 20.5,337.5C 13.5,337.5 6.5,337.5 -0.5,337.5C -0.5,309.5 -0.5,281.5 -0.5,253.5 Z"/></g>
<g><path style="opacity:0.959" fill="#000000" d="M 159.5,257.5 C 166.5,257.5 173.5,257.5 180.5,257.5C 180.5,263.167 180.5,268.833 180.5,274.5C 184.5,274.5 188.5,274.5 192.5,274.5C 192.5,279.833 192.5,285.167 192.5,290.5C 188.5,290.5 184.5,290.5 180.5,290.5C 180.334,300.172 180.5,309.839 181,319.5C 184.394,320.456 187.894,320.789 191.5,320.5C 191.5,326.167 191.5,331.833 191.5,337.5C 184.492,337.666 177.492,337.5 170.5,337C 164.902,335.069 161.402,331.236 160,325.5C 159.5,313.838 159.333,302.171 159.5,290.5C 156.833,290.5 154.167,290.5 151.5,290.5C 151.5,285.167 151.5,279.833 151.5,274.5C 154.167,274.5 156.833,274.5 159.5,274.5C 159.5,268.833 159.5,263.167 159.5,257.5 Z"/></g>
<g><path style="opacity:0.945" fill="#000000" d="M 126.5,339.5 C 122.5,339.5 118.5,339.5 114.5,339.5C 102.241,337.417 94.0746,330.417 90,318.5C 89.3333,310.167 89.3333,301.833 90,293.5C 95.0378,279.219 105.204,272.219 120.5,272.5C 137.668,272.479 147.835,280.812 151,297.5C 152.507,307.601 151.174,317.268 147,326.5C 141.958,333.765 135.125,338.098 126.5,339.5 Z M 117.5,289.5 C 123.425,288.875 127.591,291.208 130,296.5C 130.667,302.833 130.667,309.167 130,315.5C 126.657,322.248 121.49,324.081 114.5,321C 112.19,319.363 110.69,317.196 110,314.5C 109.123,307.751 109.456,301.084 111,294.5C 112.805,292.174 114.972,290.508 117.5,289.5 Z"/></g>
<g><path style="opacity:0.945" fill="#000000" d="M 260.5,339.5 C 256.5,339.5 252.5,339.5 248.5,339.5C 234.953,337.121 226.787,329.121 224,315.5C 219.962,283.537 233.796,269.704 265.5,274C 275.765,277.264 282.265,284.098 285,294.5C 285.667,302.167 285.667,309.833 285,317.5C 281.358,329.98 273.192,337.313 260.5,339.5 Z M 251.5,289.5 C 258.794,288.419 263.294,291.419 265,298.5C 265.861,304.585 265.527,310.585 264,316.5C 260.22,322.39 255.053,323.89 248.5,321C 246.951,319.786 245.785,318.286 245,316.5C 244.333,309.5 244.333,302.5 245,295.5C 246.494,292.686 248.66,290.686 251.5,289.5 Z"/></g>
<g><path style="opacity:0.953" fill="#000000" d="M 323.5,272.5 C 335.601,270.901 344.101,275.568 349,286.5C 350.442,303.444 350.942,320.444 350.5,337.5C 343.5,337.5 336.5,337.5 329.5,337.5C 329.667,323.829 329.5,310.163 329,296.5C 327.336,292.916 324.503,291.249 320.5,291.5C 315.43,291.118 312.597,293.452 312,298.5C 311.5,311.496 311.333,324.496 311.5,337.5C 304.5,337.5 297.5,337.5 290.5,337.5C 290.5,316.5 290.5,295.5 290.5,274.5C 297.175,274.334 303.842,274.5 310.5,275C 311.191,276.067 311.691,277.234 312,278.5C 315.575,275.798 319.408,273.798 323.5,272.5 Z"/></g>
<g><path style="opacity:0.958" fill="#000000" d="M 197.5,274.5 C 204.5,274.5 211.5,274.5 218.5,274.5C 218.5,295.5 218.5,316.5 218.5,337.5C 211.5,337.5 204.5,337.5 197.5,337.5C 197.5,316.5 197.5,295.5 197.5,274.5 Z"/></g>
</svg>
