<?xml version="1.0" encoding="UTF-8"?>
<!DOCTYPE svg PUBLIC "-//W3C//DTD SVG 1.1//EN" "http://www.w3.org/Graphics/SVG/1.1/DTD/svg11.dtd">
<svg xmlns="http://www.w3.org/2000/svg" version="1.1" width="360px" height="326px" style="shape-rendering:geometricPrecision; text-rendering:geometricPrecision; image-rendering:optimizeQuality; fill-rule:evenodd; clip-rule:evenodd" xmlns:xlink="http://www.w3.org/1999/xlink">
<g><path style="opacity:1" fill="#1d2024" d="M 159.5,0.5 C 205.125,-2.10478 240.292,15.5619 265,53.5C 284.333,90.1612 284.333,126.828 265,163.5C 251.701,185.126 233.201,200.626 209.5,210C 205.577,212.309 202.077,211.809 199,208.5C 198.667,195.5 198.333,182.5 198,169.5C 197.063,164.503 194.896,160.169 191.5,156.5C 231.351,150.171 246.851,127.171 238,87.5C 235.92,82.3338 233.087,77.6671 229.5,73.5C 232.189,64.4699 232.023,55.4699 229,46.5C 222.956,45.1641 217.122,45.9974 211.5,49C 207.065,51.6339 202.565,54.1339 198,56.5C 180.492,51.19 162.992,51.19 145.5,56.5C 138.562,52.1979 131.229,48.6979 123.5,46C 120.833,45.3333 118.167,45.3333 115.5,46C 111.987,55.0402 111.654,64.2069 114.5,73.5C 104.605,85.4088 101.105,99.0755 104,114.5C 106.443,132.93 116.276,145.43 133.5,152C 139.506,153.502 145.506,155.002 151.5,156.5C 148.494,161.013 146.16,165.846 144.5,171C 130.835,176.667 120.335,173.167 113,160.5C 109.161,155.004 103.994,151.67 97.5,150.5C 95.6698,150.776 94.0032,151.443 92.5,152.5C 100.692,159.212 106.859,167.545 111,177.5C 114.544,182.522 119.377,185.356 125.5,186C 132.189,186.609 138.856,186.443 145.5,185.5C 145.666,192.841 145.5,200.174 145,207.5C 144.002,209.921 142.168,211.255 139.5,211.5C 95.9632,196.436 70.7965,166.102 64,120.5C 60.8747,73.9141 79.0414,38.4141 118.5,14C 131.468,6.95465 145.134,2.45465 159.5,0.5 Z"/></g>
<g><path style="opacity:1" fill="#1a1818" d="M 53.5,325.5 C 45.8333,325.5 38.1667,325.5 30.5,325.5C 12.5783,320.713 2.24501,309.047 -0.5,290.5C -0.5,281.833 -0.5,273.167 -0.5,264.5C 2.59732,240.907 16.0973,228.573 40,227.5C 44.7946,228.254 49.628,228.754 54.5,229C 58.3934,229.465 62.0601,230.631 65.5,232.5C 65.8333,233.333 66.1667,234.167 66.5,235C 65.3055,239.806 64.3055,244.64 63.5,249.5C 28.8451,240.987 14.6785,254.32 21,289.5C 24.5795,304.048 33.7461,309.548 48.5,306C 50.4302,300.126 51.0968,293.96 50.5,287.5C 45.9014,287.8 41.4014,287.467 37,286.5C 36.1944,280.916 36.3611,275.416 37.5,270C 48.41,269.18 59.2433,269.347 70,270.5C 70.6667,286.5 70.6667,302.5 70,318.5C 64.8398,321.836 59.3398,324.169 53.5,325.5 Z"/></g>
<g><path style="opacity:1" fill="#1d1d1e" d="M 158.5,232.5 C 164.833,232.5 171.167,232.5 177.5,232.5C 177.5,243.5 177.5,254.5 177.5,265.5C 176.833,254.992 176.167,244.326 175.5,233.5C 170.793,233.695 166.126,233.695 161.5,233.5C 160.5,263.159 160.167,292.826 160.5,322.5C 165.833,322.5 171.167,322.5 176.5,322.5C 175.853,309.456 176.52,296.789 178.5,284.5C 178.667,297.504 178.5,310.504 178,323.5C 171.667,324.833 165.333,324.833 159,323.5C 158.5,293.168 158.333,262.835 158.5,232.5 Z"/></g>
<g><path style="opacity:1" fill="#464647" d="M 158.5,232.5 C 164.979,231.509 171.646,231.176 178.5,231.5C 178.5,242.833 178.5,254.167 178.5,265.5C 178.167,265.5 177.833,265.5 177.5,265.5C 177.5,254.5 177.5,243.5 177.5,232.5C 171.167,232.5 164.833,232.5 158.5,232.5 Z"/></g>
<g><path style="opacity:0.874" fill="#9d9d9d" d="M 205.5,232.5 C 205.5,243.833 205.5,255.167 205.5,266.5C 196.318,266.827 187.318,266.493 178.5,265.5C 187.167,265.5 195.833,265.5 204.5,265.5C 204.172,254.321 204.505,243.321 205.5,232.5 Z"/></g>
<g><path style="opacity:1" fill="#414141" d="M 204.5,284.5 C 205.117,284.389 205.617,284.056 206,283.5C 206.5,296.496 206.667,309.496 206.5,322.5C 212.167,322.5 217.833,322.5 223.5,322.5C 223.5,292.833 223.5,263.167 223.5,233.5C 217.833,233.5 212.167,233.5 206.5,233.5C 206.828,244.679 206.495,255.679 205.5,266.5C 205.5,255.167 205.5,243.833 205.5,232.5C 211.901,231.174 218.401,231.174 225,232.5C 225.667,262.5 225.667,292.5 225,322.5C 221.936,323.783 218.603,324.45 215,324.5C 211.582,324.481 208.249,324.147 205,323.5C 204.5,310.504 204.333,297.504 204.5,284.5 Z"/></g>
<g><path style="opacity:1" fill="#686869" d="M 319.5,232.5 C 313.167,232.5 306.833,232.5 300.5,232.5C 300.5,262.833 300.5,293.167 300.5,323.5C 299.502,293.005 299.169,262.338 299.5,231.5C 306.354,231.176 313.021,231.509 319.5,232.5 Z"/></g>
<g><path style="opacity:1" fill="#151212" d="M 177.5,265.5 C 177.833,265.5 178.167,265.5 178.5,265.5C 187.318,266.493 196.318,266.827 205.5,266.5C 206.495,255.679 206.828,244.679 206.5,233.5C 212.167,233.5 217.833,233.5 223.5,233.5C 223.5,263.167 223.5,292.833 223.5,322.5C 217.833,322.5 212.167,322.5 206.5,322.5C 206.667,309.496 206.5,296.496 206,283.5C 205.617,284.056 205.117,284.389 204.5,284.5C 195.833,284.5 187.167,284.5 178.5,284.5C 176.52,296.789 175.853,309.456 176.5,322.5C 171.167,322.5 165.833,322.5 160.5,322.5C 160.167,292.826 160.5,263.159 161.5,233.5C 166.126,233.695 170.793,233.695 175.5,233.5C 176.167,244.326 176.833,254.992 177.5,265.5 Z"/></g>
<g><path style="opacity:1" fill="#171515" d="M 319.5,232.5 C 319.168,242.522 319.501,252.522 320.5,262.5C 339.589,253.895 352.589,259.228 359.5,278.5C 359.5,287.167 359.5,295.833 359.5,304.5C 357.941,314.391 352.607,321.391 343.5,325.5C 338.167,325.5 332.833,325.5 327.5,325.5C 323.324,324.079 319.324,322.079 315.5,319.5C 314.756,320.991 314.09,322.491 313.5,324C 308.98,324.814 304.646,324.647 300.5,323.5C 300.5,293.167 300.5,262.833 300.5,232.5C 306.833,232.5 313.167,232.5 319.5,232.5 Z M 326.5,275.5 C 333.244,274.282 337.411,276.949 339,283.5C 339.89,290.914 339.557,298.247 338,305.5C 332.383,310.337 326.383,310.67 320,306.5C 319.333,297.167 319.333,287.833 320,278.5C 322.166,277.269 324.333,276.269 326.5,275.5 Z"/></g>
<g><path style="opacity:1" fill="#1d1b1b" d="M 87.5,233.5 C 95.8856,232.854 100.552,236.688 101.5,245C 99.5064,254.671 93.8397,258.004 84.5,255C 75.9859,246.417 76.9859,239.25 87.5,233.5 Z"/></g>
<g><path style="opacity:0.845" fill="#9a9a9a" d="M 135.5,243.5 C 136.489,248.975 136.822,254.642 136.5,260.5C 141.032,260.182 145.366,260.515 149.5,261.5C 144.833,261.5 140.167,261.5 135.5,261.5C 135.5,255.5 135.5,249.5 135.5,243.5 Z"/></g>
<g><path style="opacity:1" fill="#191717" d="M 135.5,243.5 C 135.5,249.5 135.5,255.5 135.5,261.5C 140.167,261.5 144.833,261.5 149.5,261.5C 150.488,266.64 150.821,271.974 150.5,277.5C 145.833,277.5 141.167,277.5 136.5,277.5C 136.334,286.839 136.5,296.173 137,305.5C 138.236,307.538 140.069,308.705 142.5,309C 145.095,308.869 147.595,309.036 150,309.5C 150.667,314.167 150.667,318.833 150,323.5C 148.378,324.099 146.878,324.766 145.5,325.5C 140.833,325.5 136.167,325.5 131.5,325.5C 123.957,323.793 119.124,319.126 117,311.5C 116.5,300.172 116.333,288.838 116.5,277.5C 113.15,277.665 109.817,277.498 106.5,277C 105.167,272.667 105.167,268.333 106.5,264C 109.768,262.85 113.101,262.016 116.5,261.5C 116.5,255.167 116.5,248.833 116.5,242.5C 123.022,242.177 129.355,242.51 135.5,243.5 Z"/></g>
<g><path style="opacity:1" fill="#201e1e" d="M 80.5,260.5 C 87.0898,260.189 93.5898,260.522 100,261.5C 100.667,281.833 100.667,302.167 100,322.5C 99.5,323 99,323.5 98.5,324C 92.8333,324.667 87.1667,324.667 81.5,324C 81,323.5 80.5,323 80,322.5C 79.1793,301.76 79.346,281.094 80.5,260.5 Z"/></g>
<g><path style="opacity:1" fill="#1b1919" d="M 277.5,322.5 C 277.719,321.325 277.386,320.325 276.5,319.5C 275.893,319.624 275.56,319.957 275.5,320.5C 271.845,322.377 268.178,324.043 264.5,325.5C 258.833,325.5 253.167,325.5 247.5,325.5C 236.806,321.827 231.806,314.16 232.5,302.5C 232.568,288.506 232.901,274.506 233.5,260.5C 240.09,260.189 246.59,260.522 253,261.5C 253.333,276.167 253.667,290.833 254,305.5C 255.488,308.124 257.821,309.457 261,309.5C 264.346,309.039 267.512,308.039 270.5,306.5C 271.499,291.181 271.833,275.848 271.5,260.5C 278.09,260.189 284.59,260.522 291,261.5C 291.667,282.167 291.667,302.833 291,323.5C 288.757,324.137 286.424,324.47 284,324.5C 281.39,324.467 279.223,323.8 277.5,322.5 Z"/></g>
<g><path style="opacity:0.82" fill="#a5a5a5" d="M 275.5,320.5 C 275.56,319.957 275.893,319.624 276.5,319.5C 277.386,320.325 277.719,321.325 277.5,322.5C 276.833,321.833 276.167,321.167 275.5,320.5 Z"/></g>
</svg>
