<?xml version="1.0" encoding="UTF-8"?>
<!DOCTYPE svg PUBLIC "-//W3C//DTD SVG 1.1//EN" "http://www.w3.org/Graphics/SVG/1.1/DTD/svg11.dtd">
<svg xmlns="http://www.w3.org/2000/svg" version="1.1" width="920px" height="920px" style="shape-rendering:geometricPrecision; text-rendering:geometricPrecision; image-rendering:optimizeQuality; fill-rule:evenodd; clip-rule:evenodd" xmlns:xlink="http://www.w3.org/1999/xlink">
<g><path style="opacity:0.999" fill="#e44d25" d="M 603.5,70.5 C 604.78,71.9313 606.447,72.5979 608.5,72.5C 628.448,79.642 647.448,88.642 665.5,99.5C 669.995,103.251 674.995,106.251 680.5,108.5C 682.833,109.833 685.167,111.167 687.5,112.5C 687.5,113.833 688.167,114.5 689.5,114.5C 689.973,115.906 690.973,116.573 692.5,116.5C 697.469,119.478 702.135,122.811 706.5,126.5C 706.973,127.906 707.973,128.573 709.5,128.5C 746.041,156.037 777.041,188.704 802.5,226.5C 802.427,228.027 803.094,229.027 804.5,229.5C 804.427,231.027 805.094,232.027 806.5,232.5C 806.427,234.027 807.094,235.027 808.5,235.5C 811.069,238.961 813.403,242.628 815.5,246.5C 816.079,249.331 817.412,251.664 819.5,253.5C 821.008,255.181 822.008,257.181 822.5,259.5C 824.583,264 826.916,268.334 829.5,272.5C 834.6,281.463 838.934,290.796 842.5,300.5C 842.402,302.553 843.069,304.22 844.5,305.5C 844.402,307.553 845.069,309.22 846.5,310.5C 846.229,312.38 846.896,313.713 848.5,314.5C 873.406,383.364 880.239,454.031 869,526.5C 866.728,542.245 863.228,557.578 858.5,572.5C 857.076,574.515 856.41,576.848 856.5,579.5C 856.371,581.216 856.038,582.883 855.5,584.5C 853.787,585.635 853.12,587.302 853.5,589.5C 851.065,593.799 849.398,598.466 848.5,603.5C 848.5,603.833 848.5,604.167 848.5,604.5C 846.552,606.32 845.552,608.654 845.5,611.5C 845.065,614.157 844.065,616.491 842.5,618.5C 841.069,619.78 840.402,621.447 840.5,623.5C 839.537,626.744 838.204,629.744 836.5,632.5C 835.326,633.514 834.66,634.847 834.5,636.5C 834.672,637.492 834.338,638.158 833.5,638.5C 830.71,642.416 828.71,646.749 827.5,651.5C 826.921,654.331 825.588,656.664 823.5,658.5C 821.461,659.911 820.461,661.911 820.5,664.5C 820.5,665.167 820.167,665.5 819.5,665.5C 817.461,666.911 816.461,668.911 816.5,671.5C 816.5,672.167 816.167,672.5 815.5,672.5C 813.05,674.629 811.383,677.296 810.5,680.5C 808.896,681.287 808.229,682.62 808.5,684.5C 807.974,686.23 806.974,687.564 805.5,688.5C 802.395,691.275 800.062,694.608 798.5,698.5C 796.738,699.262 795.738,700.596 795.5,702.5C 792.882,707.413 789.548,711.746 785.5,715.5C 784.094,715.973 783.427,716.973 783.5,718.5C 781.823,720.54 780.156,722.54 778.5,724.5C 776.833,725.5 775.5,726.833 774.5,728.5C 774.573,730.027 773.906,731.027 772.5,731.5C 770.086,732.911 768.419,734.911 767.5,737.5C 758.167,747.5 748.5,757.167 738.5,766.5C 735.573,767.757 733.239,769.757 731.5,772.5C 731.5,773.167 731.167,773.5 730.5,773.5C 727.911,774.419 725.911,776.086 724.5,778.5C 724.5,779.167 724.167,779.5 723.5,779.5C 721.596,779.738 720.262,780.738 719.5,782.5C 719.5,783.167 719.167,783.5 718.5,783.5C 716.596,783.738 715.262,784.738 714.5,786.5C 714.5,787.167 714.167,787.5 713.5,787.5C 711.973,787.427 710.973,788.094 710.5,789.5C 710.5,790.167 710.167,790.5 709.5,790.5C 707.973,790.427 706.973,791.094 706.5,792.5C 705.564,793.974 704.23,794.974 702.5,795.5C 700.596,795.738 699.262,796.738 698.5,798.5C 696.147,799.34 694.147,800.674 692.5,802.5C 685.513,807.663 678.18,812.33 670.5,816.5C 668.847,816.66 667.514,817.326 666.5,818.5C 666.5,819.167 666.167,819.5 665.5,819.5C 657.002,823.582 648.668,827.915 640.5,832.5C 639.486,833.674 638.153,834.34 636.5,834.5C 632.503,835.603 628.836,837.269 625.5,839.5C 622.744,841.204 619.744,842.537 616.5,843.5C 613.458,843.733 610.792,844.733 608.5,846.5C 606.62,846.229 605.287,846.896 604.5,848.5C 604.167,848.5 603.833,848.5 603.5,848.5C 596.216,850.261 589.216,852.595 582.5,855.5C 581.791,856.404 580.791,856.737 579.5,856.5C 576.848,856.41 574.515,857.076 572.5,858.5C 485.551,882.211 399.551,878.877 314.5,848.5C 311.943,846.393 308.943,845.059 305.5,844.5C 303.447,844.598 301.78,843.931 300.5,842.5C 299.22,841.069 297.553,840.402 295.5,840.5C 293.847,840.34 292.514,839.674 291.5,838.5C 290.22,837.069 288.553,836.402 286.5,836.5C 282.849,835.341 279.515,833.674 276.5,831.5C 272.818,828.992 268.818,826.992 264.5,825.5C 251.16,818.835 238.494,811.169 226.5,802.5C 226.027,801.094 225.027,800.427 223.5,800.5C 223.027,799.094 222.027,798.427 220.5,798.5C 195.73,781.075 173.064,761.075 152.5,738.5C 151.92,736.251 150.587,734.585 148.5,733.5C 139.059,724.059 130.726,713.726 123.5,702.5C 123.573,700.973 122.906,699.973 121.5,699.5C 114.053,689.71 107.386,679.376 101.5,668.5C 101.573,666.973 100.906,665.973 99.5,665.5C 97.2495,662.001 95.2495,658.335 93.5,654.5C 93.0075,652.181 92.0075,650.181 90.5,648.5C 86.3788,641.923 83.0455,634.923 80.5,627.5C 80.573,625.973 79.9063,624.973 78.5,624.5C 75.9402,619.38 73.9402,614.046 72.5,608.5C 72.7709,606.62 72.1042,605.287 70.5,604.5C 33.2533,497.839 36.7533,392.506 81,288.5C 86.6862,276.455 92.8529,264.789 99.5,253.5C 100.906,253.027 101.573,252.027 101.5,250.5C 133.436,195.226 176.102,149.893 229.5,114.5C 231.027,114.573 232.027,113.906 232.5,112.5C 320.104,56.1895 415.771,35.0229 519.5,49C 548.417,53.062 576.417,60.2286 603.5,70.5 Z"/></g>
<g><path style="opacity:0.169" fill="#f2d5ce" d="M 603.5,70.5 C 605.553,70.4021 607.22,71.0687 608.5,72.5C 606.447,72.5979 604.78,71.9313 603.5,70.5 Z"/></g>
<g><path style="opacity:0.039" fill="#f2d8d1" d="M 665.5,99.5 C 671.005,101.749 676.005,104.749 680.5,108.5C 674.995,106.251 669.995,103.251 665.5,99.5 Z"/></g>
<g><path style="opacity:0.384" fill="#f7bcad" d="M 232.5,112.5 C 232.027,113.906 231.027,114.573 229.5,114.5C 229.973,113.094 230.973,112.427 232.5,112.5 Z"/></g>
<g><path style="opacity:0.502" fill="#fccec2" d="M 687.5,112.5 C 688.5,112.833 689.167,113.5 689.5,114.5C 688.167,114.5 687.5,113.833 687.5,112.5 Z"/></g>
<g><path style="opacity:0.075" fill="#efcac0" d="M 689.5,114.5 C 691.027,114.427 692.027,115.094 692.5,116.5C 690.973,116.573 689.973,115.906 689.5,114.5 Z"/></g>
<g><path style="opacity:0.075" fill="#efcac0" d="M 706.5,126.5 C 708.027,126.427 709.027,127.094 709.5,128.5C 707.973,128.573 706.973,127.906 706.5,126.5 Z"/></g>
<g><path style="opacity:1" fill="#fefefe" d="M 314.5,208.5 C 322.167,208.5 329.833,208.5 337.5,208.5C 337.5,215.833 337.5,223.167 337.5,230.5C 344.5,230.5 351.5,230.5 358.5,230.5C 358.5,223.167 358.5,215.833 358.5,208.5C 365.833,208.5 373.167,208.5 380.5,208.5C 380.5,230.833 380.5,253.167 380.5,275.5C 373.167,275.5 365.833,275.5 358.5,275.5C 358.5,268.167 358.5,260.833 358.5,253.5C 351.5,253.5 344.5,253.5 337.5,253.5C 337.5,260.833 337.5,268.167 337.5,275.5C 329.833,275.5 322.167,275.5 314.5,275.5C 314.5,253.167 314.5,230.833 314.5,208.5 Z"/></g>
<g><path style="opacity:1" fill="#fefffe" d="M 433.5,230.5 C 432.504,245.324 432.171,260.324 432.5,275.5C 425.167,275.5 417.833,275.5 410.5,275.5C 410.5,260.5 410.5,245.5 410.5,230.5C 403.833,230.5 397.167,230.5 390.5,230.5C 390.5,223.167 390.5,215.833 390.5,208.5C 411.167,208.5 431.833,208.5 452.5,208.5C 452.5,215.833 452.5,223.167 452.5,230.5C 446.167,230.5 439.833,230.5 433.5,230.5 Z"/></g>
<g><path style="opacity:1" fill="#f19e88" d="M 463.5,208.5 C 463.5,230.833 463.5,253.167 463.5,275.5C 470.92,275.797 478.254,275.464 485.5,274.5C 478.24,276.465 470.573,277.132 462.5,276.5C 462.169,253.661 462.503,230.994 463.5,208.5 Z"/></g>
<g><path style="opacity:1" fill="#fefefe" d="M 463.5,208.5 C 471.174,208.334 478.841,208.5 486.5,209C 491.333,216.5 496.167,224 501,231.5C 505.833,224 510.667,216.5 515.5,209C 523.493,208.5 531.493,208.334 539.5,208.5C 539.5,230.833 539.5,253.167 539.5,275.5C 531.833,275.5 524.167,275.5 516.5,275.5C 516.667,264.828 516.5,254.161 516,243.5C 511,251.167 506,258.833 501,266.5C 495.667,258.5 490.333,250.5 485,242.5C 484.932,253.12 485.098,263.786 485.5,274.5C 478.254,275.464 470.92,275.797 463.5,275.5C 463.5,253.167 463.5,230.833 463.5,208.5 Z"/></g>
<g><path style="opacity:1" fill="#fefdfd" d="M 604.5,253.5 C 604.5,260.833 604.5,268.167 604.5,275.5C 586.5,275.5 568.5,275.5 550.5,275.5C 550.5,253.167 550.5,230.833 550.5,208.5C 558.174,208.334 565.841,208.5 573.5,209C 573.795,223.595 573.462,238.262 572.5,253C 583.161,253.5 593.828,253.667 604.5,253.5 Z"/></g>
<g><path style="opacity:0.427" fill="#f8c2b4" d="M 802.5,226.5 C 803.906,226.973 804.573,227.973 804.5,229.5C 803.094,229.027 802.427,228.027 802.5,226.5 Z"/></g>
<g><path style="opacity:1" fill="#f19e88" d="M 433.5,230.5 C 433.5,245.833 433.5,261.167 433.5,276.5C 425.648,276.825 417.982,276.492 410.5,275.5C 417.833,275.5 425.167,275.5 432.5,275.5C 432.171,260.324 432.504,245.324 433.5,230.5 Z"/></g>
<g><path style="opacity:0.427" fill="#f8c2b4" d="M 804.5,229.5 C 805.906,229.973 806.573,230.973 806.5,232.5C 805.094,232.027 804.427,231.027 804.5,229.5 Z"/></g>
<g><path style="opacity:0.286" fill="#f0dad4" d="M 806.5,232.5 C 807.906,232.973 808.573,233.973 808.5,235.5C 807.094,235.027 806.427,234.027 806.5,232.5 Z"/></g>
<g><path style="opacity:0.024" fill="#f5dbd4" d="M 815.5,246.5 C 817.588,248.336 818.921,250.669 819.5,253.5C 817.412,251.664 816.079,249.331 815.5,246.5 Z"/></g>
<g><path style="opacity:0.286" fill="#eed9d3" d="M 101.5,250.5 C 101.573,252.027 100.906,253.027 99.5,253.5C 99.427,251.973 100.094,250.973 101.5,250.5 Z"/></g>
<g><path style="opacity:1" fill="#f19e88" d="M 604.5,253.5 C 605.492,260.982 605.825,268.648 605.5,276.5C 586.992,276.83 568.659,276.497 550.5,275.5C 568.5,275.5 586.5,275.5 604.5,275.5C 604.5,268.167 604.5,260.833 604.5,253.5 Z"/></g>
<g><path style="opacity:0.024" fill="#f8d5cc" d="M 822.5,259.5 C 826.121,263.071 828.454,267.404 829.5,272.5C 826.916,268.334 824.583,264 822.5,259.5 Z"/></g>
<g><path style="opacity:0.169" fill="#f4cdc3" d="M 842.5,300.5 C 843.931,301.78 844.598,303.447 844.5,305.5C 843.069,304.22 842.402,302.553 842.5,300.5 Z"/></g>
<g><path style="opacity:1" fill="#fefefe" d="M 281.5,307.5 C 400.167,307.5 518.833,307.5 637.5,307.5C 626.558,428.14 615.724,548.807 605,669.5C 556.356,683.704 507.522,697.371 458.5,710.5C 410.396,697.474 362.396,684.141 314.5,670.5C 303.334,549.504 292.334,428.504 281.5,307.5 Z"/></g>
<g><path style="opacity:0.169" fill="#f4cdc3" d="M 844.5,305.5 C 845.931,306.78 846.598,308.447 846.5,310.5C 845.069,309.22 844.402,307.553 844.5,305.5 Z"/></g>
<g><path style="opacity:0.18" fill="#fbdfd8" d="M 846.5,310.5 C 847.674,311.514 848.34,312.847 848.5,314.5C 846.896,313.713 846.229,312.38 846.5,310.5 Z"/></g>
<g><path style="opacity:1" fill="#e7e5e4" d="M 570.5,380.5 C 496.167,380.5 421.833,380.5 347.5,380.5C 347.5,381.5 347.5,382.5 347.5,383.5C 346.566,382.432 346.232,381.099 346.5,379.5C 421.335,379.167 496.002,379.501 570.5,380.5 Z"/></g>
<g><path style="opacity:1" fill="#e44e26" d="M 570.5,380.5 C 569.188,395.81 568.188,411.143 567.5,426.5C 510.5,426.5 453.5,426.5 396.5,426.5C 397.76,441.173 399.093,455.84 400.5,470.5C 454.167,470.5 507.833,470.5 561.5,470.5C 558.07,516.853 554.403,563.186 550.5,609.5C 520.039,617.032 489.706,625.032 459.5,633.5C 428.865,625.287 398.198,617.287 367.5,609.5C 365.5,585.833 363.5,562.167 361.5,538.5C 376.5,538.5 391.5,538.5 406.5,538.5C 407.301,548.846 408.301,559.18 409.5,569.5C 409.649,571.32 410.316,572.82 411.5,574C 427.516,578.504 443.516,583.004 459.5,587.5C 476.007,582.219 492.673,577.553 509.5,573.5C 510.629,554.486 511.963,535.486 513.5,516.5C 462.167,516.5 410.833,516.5 359.5,516.5C 355.115,472.215 351.115,427.882 347.5,383.5C 347.5,382.5 347.5,381.5 347.5,380.5C 421.833,380.5 496.167,380.5 570.5,380.5 Z"/></g>
<g><path style="opacity:0.075" fill="#f0cac1" d="M 858.5,572.5 C 858.59,575.152 857.924,577.485 856.5,579.5C 856.41,576.848 857.076,574.515 858.5,572.5 Z"/></g>
<g><path style="opacity:0.082" fill="#f8e0da" d="M 855.5,584.5 C 855.204,586.403 854.537,588.07 853.5,589.5C 853.12,587.302 853.787,585.635 855.5,584.5 Z"/></g>
<g><path style="opacity:0.039" fill="#f3cfc5" d="M 853.5,589.5 C 852.602,594.534 850.935,599.201 848.5,603.5C 849.398,598.466 851.065,593.799 853.5,589.5 Z"/></g>
<g><path style="opacity:0.382" fill="#f9c8bc" d="M 70.5,604.5 C 72.1042,605.287 72.7709,606.62 72.5,608.5C 71.3263,607.486 70.6596,606.153 70.5,604.5 Z"/></g>
<g><path style="opacity:0.286" fill="#f6d7cf" d="M 848.5,604.5 C 848.065,607.157 847.065,609.491 845.5,611.5C 845.552,608.654 846.552,606.32 848.5,604.5 Z"/></g>
<g><path style="opacity:0.5" fill="#f2bdb0" d="M 842.5,618.5 C 842.598,620.553 841.931,622.22 840.5,623.5C 840.402,621.447 841.069,619.78 842.5,618.5 Z"/></g>
<g><path style="opacity:0.169" fill="#f4ded9" d="M 78.5,624.5 C 79.9063,624.973 80.573,625.973 80.5,627.5C 79.0937,627.027 78.427,626.027 78.5,624.5 Z"/></g>
<g><path style="opacity:0.251" fill="#eed1ca" d="M 836.5,632.5 C 836.771,634.38 836.104,635.713 834.5,636.5C 834.66,634.847 835.326,633.514 836.5,632.5 Z"/></g>
<g><path style="opacity:0.267" fill="#f1d8d2" d="M 833.5,638.5 C 832.29,643.251 830.29,647.584 827.5,651.5C 828.71,646.749 830.71,642.416 833.5,638.5 Z"/></g>
<g><path style="opacity:0.169" fill="#f3d8d1" d="M 90.5,648.5 C 92.0075,650.181 93.0075,652.181 93.5,654.5C 91.461,653.089 90.461,651.089 90.5,648.5 Z"/></g>
<g><path style="opacity:0.267" fill="#f3e0db" d="M 823.5,658.5 C 823.008,660.819 822.008,662.819 820.5,664.5C 820.461,661.911 821.461,659.911 823.5,658.5 Z"/></g>
<g><path style="opacity:0.094" fill="#eed9d3" d="M 99.5,665.5 C 100.906,665.973 101.573,666.973 101.5,668.5C 100.094,668.027 99.427,667.027 99.5,665.5 Z"/></g>
<g><path style="opacity:0.267" fill="#f3e0db" d="M 819.5,665.5 C 819.008,667.819 818.008,669.819 816.5,671.5C 816.461,668.911 817.461,666.911 819.5,665.5 Z"/></g>
<g><path style="opacity:0.286" fill="#f0d7d1" d="M 815.5,672.5 C 814.617,675.704 812.95,678.371 810.5,680.5C 811.383,677.296 813.05,674.629 815.5,672.5 Z"/></g>
<g><path style="opacity:0.055" fill="#f4eae8" d="M 810.5,680.5 C 810.34,682.153 809.674,683.486 808.5,684.5C 808.229,682.62 808.896,681.287 810.5,680.5 Z"/></g>
<g><path style="opacity:0.169" fill="#f3d6cf" d="M 805.5,688.5 C 803.938,692.392 801.605,695.725 798.5,698.5C 800.062,694.608 802.395,691.275 805.5,688.5 Z"/></g>
<g><path style="opacity:0.075" fill="#edd6d1" d="M 798.5,698.5 C 798.262,700.404 797.262,701.738 795.5,702.5C 795.738,700.596 796.738,699.262 798.5,698.5 Z"/></g>
<g><path style="opacity:0.039" fill="#f2ccc2" d="M 121.5,699.5 C 122.906,699.973 123.573,700.973 123.5,702.5C 122.094,702.027 121.427,701.027 121.5,699.5 Z"/></g>
<g><path style="opacity:0.129" fill="#f0cac1" d="M 785.5,715.5 C 785.573,717.027 784.906,718.027 783.5,718.5C 783.427,716.973 784.094,715.973 785.5,715.5 Z"/></g>
<g><path style="opacity:0.153" fill="#eecdc5" d="M 778.5,724.5 C 778.167,726.833 776.833,728.167 774.5,728.5C 775.5,726.833 776.833,725.5 778.5,724.5 Z"/></g>
<g><path style="opacity:0.129" fill="#f2d3cb" d="M 772.5,731.5 C 771.581,734.089 769.914,736.089 767.5,737.5C 768.419,734.911 770.086,732.911 772.5,731.5 Z"/></g>
<g><path style="opacity:0.055" fill="#f3cac0" d="M 148.5,733.5 C 150.587,734.585 151.92,736.251 152.5,738.5C 150.413,737.415 149.08,735.749 148.5,733.5 Z"/></g>
<g><path style="opacity:0.169" fill="#f3d4cc" d="M 738.5,766.5 C 736.761,769.243 734.427,771.243 731.5,772.5C 733.239,769.757 735.573,767.757 738.5,766.5 Z"/></g>
<g><path style="opacity:0.169" fill="#efd4ce" d="M 730.5,773.5 C 729.089,775.914 727.089,777.581 724.5,778.5C 725.911,776.086 727.911,774.419 730.5,773.5 Z"/></g>
<g><path style="opacity:0.169" fill="#f3d6cf" d="M 723.5,779.5 C 722.738,781.262 721.404,782.262 719.5,782.5C 720.262,780.738 721.596,779.738 723.5,779.5 Z"/></g>
<g><path style="opacity:0.153" fill="#eed6d0" d="M 718.5,783.5 C 717.738,785.262 716.404,786.262 714.5,786.5C 715.262,784.738 716.596,783.738 718.5,783.5 Z"/></g>
<g><path style="opacity:0.114" fill="#edcec6" d="M 713.5,787.5 C 713.027,788.906 712.027,789.573 710.5,789.5C 710.973,788.094 711.973,787.427 713.5,787.5 Z"/></g>
<g><path style="opacity:0.114" fill="#edcec6" d="M 709.5,790.5 C 709.027,791.906 708.027,792.573 706.5,792.5C 706.973,791.094 707.973,790.427 709.5,790.5 Z"/></g>
<g><path style="opacity:0.114" fill="#f0d3cc" d="M 702.5,795.5 C 701.738,797.262 700.404,798.262 698.5,798.5C 699.262,796.738 700.596,795.738 702.5,795.5 Z"/></g>
<g><path style="opacity:0.427" fill="#f2bcae" d="M 220.5,798.5 C 222.027,798.427 223.027,799.094 223.5,800.5C 221.973,800.573 220.973,799.906 220.5,798.5 Z"/></g>
<g><path style="opacity:0.267" fill="#edd7d2" d="M 223.5,800.5 C 225.027,800.427 226.027,801.094 226.5,802.5C 224.973,802.573 223.973,801.906 223.5,800.5 Z"/></g>
<g><path style="opacity:0.114" fill="#eed0c8" d="M 698.5,798.5 C 697.198,800.822 695.198,802.155 692.5,802.5C 694.147,800.674 696.147,799.34 698.5,798.5 Z"/></g>
<g><path style="opacity:0.039" fill="#f5dad3" d="M 670.5,816.5 C 669.713,818.104 668.38,818.771 666.5,818.5C 667.514,817.326 668.847,816.66 670.5,816.5 Z"/></g>
<g><path style="opacity:0.055" fill="#f5dbd4" d="M 665.5,819.5 C 657.919,825.125 649.585,829.459 640.5,832.5C 648.668,827.915 657.002,823.582 665.5,819.5 Z"/></g>
<g><path style="opacity:0.169" fill="#f5dad3" d="M 264.5,825.5 C 268.818,826.992 272.818,828.992 276.5,831.5C 271.914,830.54 267.914,828.54 264.5,825.5 Z"/></g>
<g><path style="opacity:0.153" fill="#efd7d1" d="M 286.5,836.5 C 288.553,836.402 290.22,837.069 291.5,838.5C 289.447,838.598 287.78,837.931 286.5,836.5 Z"/></g>
<g><path style="opacity:0.251" fill="#f1d1c9" d="M 636.5,834.5 C 633.355,837.113 629.689,838.779 625.5,839.5C 628.836,837.269 632.503,835.603 636.5,834.5 Z"/></g>
<g><path style="opacity:0.153" fill="#f3ccc2" d="M 295.5,840.5 C 297.553,840.402 299.22,841.069 300.5,842.5C 298.447,842.598 296.78,841.931 295.5,840.5 Z"/></g>
<g><path style="opacity:0.208" fill="#f6d2c8" d="M 305.5,844.5 C 308.943,845.059 311.943,846.393 314.5,848.5C 311.088,847.925 308.088,846.592 305.5,844.5 Z"/></g>
<g><path style="opacity:0.251" fill="#f1d1c9" d="M 616.5,843.5 C 614.208,845.267 611.542,846.267 608.5,846.5C 610.792,844.733 613.458,843.733 616.5,843.5 Z"/></g>
<g><path style="opacity:0.055" fill="#f6ecea" d="M 608.5,846.5 C 607.486,847.674 606.153,848.34 604.5,848.5C 605.287,846.896 606.62,846.229 608.5,846.5 Z"/></g>
<g><path style="opacity:0.024" fill="#f3d2ca" d="M 603.5,848.5 C 596.915,851.806 589.915,854.14 582.5,855.5C 589.216,852.595 596.216,850.261 603.5,848.5 Z"/></g>
<g><path style="opacity:0.024" fill="#f3d3cb" d="M 579.5,856.5 C 577.485,857.924 575.152,858.59 572.5,858.5C 574.515,857.076 576.848,856.41 579.5,856.5 Z"/></g>
</svg>
