<?xml version="1.0" encoding="UTF-8"?>
<!DOCTYPE svg PUBLIC "-//W3C//DTD SVG 1.1//EN" "http://www.w3.org/Graphics/SVG/1.1/DTD/svg11.dtd">
<svg xmlns="http://www.w3.org/2000/svg" version="1.1" width="360px" height="360px" style="shape-rendering:geometricPrecision; text-rendering:geometricPrecision; image-rendering:optimizeQuality; fill-rule:evenodd; clip-rule:evenodd" xmlns:xlink="http://www.w3.org/1999/xlink">
<g><path style="opacity:1" fill="#000000" d="M 160.5,13.5 C 164.167,13.5 167.833,13.5 171.5,13.5C 171.5,27.8333 171.5,42.1667 171.5,56.5C 161.167,56.5 150.833,56.5 140.5,56.5C 140.5,52.8333 140.5,49.1667 140.5,45.5C 147.167,45.5 153.833,45.5 160.5,45.5C 160.5,34.8333 160.5,24.1667 160.5,13.5 Z"/></g>
<g><path style="opacity:0.992" fill="#000000" d="M 178.5,13.5 C 192.167,13.5 205.833,13.5 219.5,13.5C 219.5,17.1667 219.5,20.8333 219.5,24.5C 209.5,24.5 199.5,24.5 189.5,24.5C 189.261,26.4672 189.594,28.3005 190.5,30C 200.161,30.4998 209.828,30.6665 219.5,30.5C 219.5,39.1667 219.5,47.8333 219.5,56.5C 205.833,56.5 192.167,56.5 178.5,56.5C 178.5,52.8333 178.5,49.1667 178.5,45.5C 188.5,45.5 198.5,45.5 208.5,45.5C 208.5,43.5 208.5,41.5 208.5,39.5C 198.933,39.6998 189.267,39.6998 179.5,39.5C 178.502,30.8589 178.169,22.1922 178.5,13.5 Z"/></g>
<g><path style="opacity:0.992" fill="#ebcc4e" d="M 297.5,84.5 C 296.549,83.0813 296.216,81.4147 296.5,79.5C 218.5,79.5 140.5,79.5 62.5,79.5C 63.6778,84.3121 63.6778,88.9787 62.5,93.5C 61.2004,88.3104 60.867,83.1437 61.5,78C 140.167,77.3333 218.833,77.3333 297.5,78C 298.768,80.1632 298.768,82.3298 297.5,84.5 Z"/></g>
<g><path style="opacity:1" fill="#e8c831" d="M 297.5,84.5 C 291.487,162.959 284.487,241.292 276.5,319.5C 244.439,328.89 212.273,337.89 180,346.5C 147.35,338.046 114.85,329.046 82.5,319.5C 74.7775,244.273 68.1108,168.94 62.5,93.5C 63.6778,88.9787 63.6778,84.3121 62.5,79.5C 140.5,79.5 218.5,79.5 296.5,79.5C 296.216,81.4147 296.549,83.0813 297.5,84.5 Z M 149.5,127.5 C 154.5,127.5 159.5,127.5 164.5,127.5C 166.205,129.192 168.205,130.525 170.5,131.5C 170.5,185.5 170.5,239.5 170.5,293.5C 147.093,287.481 123.759,281.148 100.5,274.5C 99.3347,265.518 99.168,256.518 100,247.5C 114.682,252.004 129.516,256.004 144.5,259.5C 144.5,216.833 144.5,174.167 144.5,131.5C 146.191,130.136 147.858,128.803 149.5,127.5 Z M 188.5,127.5 C 213.167,127.5 237.833,127.5 262.5,127.5C 262.014,136.182 261.347,144.849 260.5,153.5C 245.167,153.5 229.833,153.5 214.5,153.5C 214.167,168.848 214.501,184.181 215.5,199.5C 229.368,197.21 243.202,194.877 257,192.5C 254.899,220.844 252.399,249.177 249.5,277.5C 229.144,282.839 208.811,288.005 188.5,293C 188.569,285.291 188.903,276.624 189.5,267C 202.097,263.184 214.764,259.684 227.5,256.5C 228.637,245.464 229.97,234.464 231.5,223.5C 230.5,223.167 229.5,222.833 228.5,222.5C 215.991,224.446 203.491,226.446 191,228.5C 190.167,228.167 189.333,227.833 188.5,227.5C 189.731,193.217 189.731,159.884 188.5,127.5 Z"/></g>
<g><path style="opacity:0.964" fill="#fddc24" d="M 180.5,98.5 C 211.576,99.6816 242.742,99.6816 274,98.5C 274.545,103.844 274.045,109.344 272.5,115C 272.5,119.333 272.5,123.667 272.5,128C 271.833,131 271.167,134 270.5,137C 270.833,138 271.167,139 271.5,140C 270.833,143 270.167,146 269.5,149C 269.833,150 270.167,151 270.5,152C 269.833,154.667 269.167,157.333 268.5,160C 268.5,164.667 268.5,169.333 268.5,174C 267.949,180.599 266.949,187.266 265.5,194C 265.616,195.268 265.949,196.602 266.5,198C 265.833,201 265.167,204 264.5,207C 264.833,207.333 265.167,207.667 265.5,208C 264.07,218.793 262.737,229.626 261.5,240.5C 261.709,241.086 262.043,241.586 262.5,242C 261.833,244.667 261.167,247.333 260.5,250C 260.5,254.667 260.5,259.333 260.5,264C 259.949,270.599 258.949,277.266 257.5,284C 257.616,285.268 257.949,286.602 258.5,288C 257.418,293.725 256.418,299.225 255.5,304.5C 230.289,311.427 205.122,318.427 180,325.5C 179.333,283.833 179.333,242.167 180,200.5C 180.862,198.913 181.529,197.246 182,195.5C 182.167,188.5 182.333,181.5 182.5,174.5C 182.79,160.36 181.79,146.36 179.5,132.5C 179.694,121.229 180.028,109.896 180.5,98.5 Z M 188.5,127.5 C 189.731,159.884 189.731,193.217 188.5,227.5C 189.333,227.833 190.167,228.167 191,228.5C 203.491,226.446 215.991,224.446 228.5,222.5C 229.5,222.833 230.5,223.167 231.5,223.5C 229.97,234.464 228.637,245.464 227.5,256.5C 214.764,259.684 202.097,263.184 189.5,267C 188.903,276.624 188.569,285.291 188.5,293C 208.811,288.005 229.144,282.839 249.5,277.5C 252.399,249.177 254.899,220.844 257,192.5C 243.202,194.877 229.368,197.21 215.5,199.5C 214.501,184.181 214.167,168.848 214.5,153.5C 229.833,153.5 245.167,153.5 260.5,153.5C 261.347,144.849 262.014,136.182 262.5,127.5C 237.833,127.5 213.167,127.5 188.5,127.5 Z"/></g>
<g><path style="opacity:0.505" fill="#eff0f0" d="M 149.5,127.5 C 147.858,128.803 146.191,130.136 144.5,131.5C 144.5,130.167 144.5,128.833 144.5,127.5C 146.167,127.5 147.833,127.5 149.5,127.5 Z"/></g>
<g><path style="opacity:0.608" fill="#eeefef" d="M 164.5,127.5 C 166.5,127.5 168.5,127.5 170.5,127.5C 170.5,128.833 170.5,130.167 170.5,131.5C 168.205,130.525 166.205,129.192 164.5,127.5 Z"/></g>
</svg>
