<?xml version="1.0" encoding="UTF-8"?>
<!DOCTYPE svg PUBLIC "-//W3C//DTD SVG 1.1//EN" "http://www.w3.org/Graphics/SVG/1.1/DTD/svg11.dtd">
<svg xmlns="http://www.w3.org/2000/svg" version="1.1" width="225px" height="225px" style="shape-rendering:geometricPrecision; text-rendering:geometricPrecision; image-rendering:optimizeQuality; fill-rule:evenodd; clip-rule:evenodd" xmlns:xlink="http://www.w3.org/1999/xlink">
<g><path style="opacity:0.998" fill="#2cc7b7" d="M 110.5,-0.5 C 111.5,-0.5 112.5,-0.5 113.5,-0.5C 117.833,4.16667 122.167,8.83333 126.5,13.5C 127.96,15.4628 129.627,17.2962 131.5,19C 123.625,30.5798 116.125,42.4132 109,54.5C 104.734,55.0312 100.567,56.0312 96.5,57.5C 86.6845,53.4242 77.0179,49.0908 67.5,44.5C 76.5214,35.146 85.5214,25.8127 94.5,16.5C 99.8333,10.8333 105.167,5.16667 110.5,-0.5 Z"/></g>
<g><path style="opacity:1" fill="#27c7b7" d="M 37.5,73.5 C 38.1667,72.1667 39.1667,71.1667 40.5,70.5C 47.4795,63.8549 54.4795,57.1882 61.5,50.5C 71.5,54.8333 81.5,59.1667 91.5,63.5C 92.6191,67.997 93.7858,72.3303 95,76.5C 86.9387,88.232 79.272,100.232 72,112.5C 69.4449,114.65 66.6116,114.983 63.5,113.5C 55,101.167 46.5,88.8333 38,76.5C 37.5172,75.552 37.3505,74.552 37.5,73.5 Z"/></g>
<g><path style="opacity:0.996" fill="#33c8b8" d="M 170.5,57.5 C 175.562,61.5593 179.895,66.226 183.5,71.5C 177.193,74.3189 170.859,77.1522 164.5,80C 161.483,80.8218 159.817,79.6551 159.5,76.5C 160.786,68.1158 162.286,59.7825 164,51.5C 166.037,53.7059 168.203,55.7059 170.5,57.5 Z"/></g>
<g><path style="opacity:0.996" fill="#39c8b9" d="M 190.5,77.5 C 201.833,88.1667 212.833,99.1667 223.5,110.5C 223.44,111.043 223.107,111.376 222.5,111.5C 203.716,103.608 185.05,95.4416 166.5,87C 174.417,83.5297 182.417,80.3631 190.5,77.5 Z"/></g>
<g><path style="opacity:0.995" fill="#31c8b8" d="M 31.5,80.5 C 40.3036,92.821 48.9703,105.321 57.5,118C 56.7476,118.671 56.4142,119.504 56.5,120.5C 55.8501,120.804 55.1835,121.137 54.5,121.5C 37.8364,117.834 21.1698,114.167 4.5,110.5C 3.28665,110.253 2.61998,109.586 2.5,108.5C 11.5532,98.4453 21.2199,89.112 31.5,80.5 Z"/></g>
<g><path style="opacity:0.227" fill="#f0f1f1" d="M 126.5,13.5 C 137.66,23.1526 148.494,33.4859 159,44.5C 158.902,48.409 161.068,50.5756 165.5,51C 167.79,52.7772 169.457,54.9438 170.5,57.5C 168.203,55.7059 166.037,53.7059 164,51.5C 162.286,59.7825 160.786,68.1158 159.5,76.5C 159.817,79.6551 161.483,80.8218 164.5,80C 170.859,77.1522 177.193,74.3189 183.5,71.5C 184.643,74.9815 186.976,76.9815 190.5,77.5C 182.417,80.3631 174.417,83.5297 166.5,87C 185.05,95.4416 203.716,103.608 222.5,111.5C 223.107,111.376 223.44,111.043 223.5,110.5C 223.833,110.5 224.167,110.5 224.5,110.5C 224.5,111.167 224.5,111.833 224.5,112.5C 223.325,112.281 222.325,112.614 221.5,113.5C 220.174,114.642 219.174,115.976 218.5,117.5C 200.735,110.298 183.068,102.798 165.5,95C 164.167,94.3333 162.833,94.3333 161.5,95C 160.307,96.0946 158.973,96.928 157.5,97.5C 157.306,95.0882 155.973,94.0882 153.5,94.5C 153.5,93.5 153.5,92.5 153.5,91.5C 156.5,91.8333 157.833,90.5 157.5,87.5C 156.167,87.5 154.833,87.5 153.5,87.5C 153.5,88.5 153.5,89.5 153.5,90.5C 152.5,90.5 151.5,90.5 150.5,90.5C 150.663,88.1432 150.497,85.8098 150,83.5C 149.51,84.7932 149.343,86.1266 149.5,87.5C 148.5,87.5 147.5,87.5 146.5,87.5C 146.5,88.8333 146.5,90.1667 146.5,91.5C 144.517,91.8432 143.183,91.1765 142.5,89.5C 144.476,88.5729 144.809,87.2395 143.5,85.5C 134.5,81.6667 125.5,77.8333 116.5,74C 115.5,73.3333 114.5,73.3333 113.5,74C 110.138,77.1803 106.138,79.0137 101.5,79.5C 94,91.1667 86.5,102.833 79,114.5C 78.3083,115.437 78.475,116.103 79.5,116.5C 79.5,117.833 79.5,119.167 79.5,120.5C 78.5,120.5 77.5,120.5 76.5,120.5C 76.6567,119.127 76.49,117.793 76,116.5C 74.9887,117.337 73.8221,117.67 72.5,117.5C 72.5,118.5 72.5,119.5 72.5,120.5C 71.5,120.5 70.5,120.5 69.5,120.5C 69.5,121.833 69.5,123.167 69.5,124.5C 68.1667,124.5 66.8333,124.5 65.5,124.5C 65.5,125.5 65.5,126.5 65.5,127.5C 64.1667,127.5 62.8333,127.5 61.5,127.5C 61.5,126.5 61.5,125.5 61.5,124.5C 60.5,124.5 59.5,124.5 58.5,124.5C 58.5,125.5 58.5,126.5 58.5,127.5C 57.1667,127.5 55.8333,127.5 54.5,127.5C 54.5,126.5 54.5,125.5 54.5,124.5C 56.6348,124.853 57.9681,124.02 58.5,122C 58.1639,120.97 57.4972,120.47 56.5,120.5C 56.4142,119.504 56.7476,118.671 57.5,118C 48.9703,105.321 40.3036,92.821 31.5,80.5C 34.0779,78.573 36.0779,76.2397 37.5,73.5C 37.3505,74.552 37.5172,75.552 38,76.5C 46.5,88.8333 55,101.167 63.5,113.5C 66.6116,114.983 69.4449,114.65 72,112.5C 79.272,100.232 86.9387,88.232 95,76.5C 93.7858,72.3303 92.6191,67.997 91.5,63.5C 81.5,59.1667 71.5,54.8333 61.5,50.5C 54.4795,57.1882 47.4795,63.8549 40.5,70.5C 46.7723,62.3932 53.9389,55.0599 62,48.5C 71.4092,38.0773 81.5758,27.5773 92.5,17C 93.0944,16.5357 93.7611,16.369 94.5,16.5C 85.5214,25.8127 76.5214,35.146 67.5,44.5C 77.0179,49.0908 86.6845,53.4242 96.5,57.5C 100.567,56.0312 104.734,55.0312 109,54.5C 116.125,42.4132 123.625,30.5798 131.5,19C 129.627,17.2962 127.96,15.4628 126.5,13.5 Z"/></g>
<g><path style="opacity:1" fill="#27c7b7" d="M 142.5,89.5 C 121.418,98.3052 100.418,107.305 79.5,116.5C 78.475,116.103 78.3083,115.437 79,114.5C 86.5,102.833 94,91.1667 101.5,79.5C 106.138,79.0137 110.138,77.1803 113.5,74C 114.5,73.3333 115.5,73.3333 116.5,74C 125.5,77.8333 134.5,81.6667 143.5,85.5C 144.809,87.2395 144.476,88.5729 142.5,89.5 Z"/></g>
<g><path style="opacity:1" fill="#27c7b7" d="M 136.5,24.5 C 143.131,30.6306 149.631,36.964 156,43.5C 155.588,54.5751 154.254,65.5751 152,76.5C 151.225,78.2231 149.892,79.2231 148,79.5C 137.442,75.1377 126.942,70.6377 116.5,66C 115.541,64.2927 114.875,62.4594 114.5,60.5C 121.427,48.2426 128.76,36.2426 136.5,24.5 Z"/></g>
<g><path style="opacity:0.998" fill="#2ac7b7" d="M 218.5,117.5 C 218.5,117.833 218.5,118.167 218.5,118.5C 217.167,119.167 216.167,120.167 215.5,121.5C 210.5,127.167 205.167,132.5 199.5,137.5C 195.453,141.551 191.12,145.217 186.5,148.5C 175.806,146.44 165.14,144.273 154.5,142C 153.008,138.855 151.675,135.689 150.5,132.5C 152.268,121.158 154.102,109.825 156,98.5C 156.383,97.944 156.883,97.6107 157.5,97.5C 158.973,96.928 160.307,96.0946 161.5,95C 162.833,94.3333 164.167,94.3333 165.5,95C 183.068,102.798 200.735,110.298 218.5,117.5 Z"/></g>
<g><path style="opacity:0.994" fill="#28c7b7" d="M 6.5,119.5 C 6.55999,118.957 6.89333,118.624 7.5,118.5C 22.1538,121.663 36.8204,124.83 51.5,128C 43.3507,131.83 35.184,135.663 27,139.5C 25.6288,137.959 24.1288,136.625 22.5,135.5C 19.1667,131.5 15.5,127.833 11.5,124.5C 10.1667,122.5 8.5,120.833 6.5,119.5 Z"/></g>
<g><path style="opacity:0.02" fill="#eef0f0" d="M 218.5,118.5 C 218.5,120.5 217.5,121.5 215.5,121.5C 216.167,120.167 217.167,119.167 218.5,118.5 Z"/></g>
<g><path style="opacity:0.176" fill="#e8eaea" d="M 6.5,119.5 C 8.5,120.833 10.1667,122.5 11.5,124.5C 8.83333,123.833 7.16667,122.167 6.5,119.5 Z"/></g>
<g><path style="opacity:0.176" fill="#e5e9e8" d="M 11.5,124.5 C 15.5,127.833 19.1667,131.5 22.5,135.5C 17.8333,132.833 14.1667,129.167 11.5,124.5 Z"/></g>
<g><path style="opacity:0.227" fill="#f0f2f2" d="M 157.5,97.5 C 156.883,97.6107 156.383,97.944 156,98.5C 154.102,109.825 152.268,121.158 150.5,132.5C 151.675,135.689 153.008,138.855 154.5,142C 165.14,144.273 175.806,146.44 186.5,148.5C 191.12,145.217 195.453,141.551 199.5,137.5C 195.234,142.941 190.734,148.274 186,153.5C 170.529,167.971 155.362,182.804 140.5,198C 138.783,199.559 136.783,200.392 134.5,200.5C 134.727,202.933 133.727,204.599 131.5,205.5C 131.631,206.239 131.464,206.906 131,207.5C 127.264,210.417 123.764,213.417 120.5,216.5C 122.113,215.162 122.613,213.495 122,211.5C 105.333,187.5 88.6667,163.5 72,139.5C 68.9243,140.288 65.7577,140.788 62.5,141C 57.7919,147.58 53.4586,154.413 49.5,161.5C 51.8558,164.186 54.1891,166.853 56.5,169.5C 51.7591,167.255 48.5924,163.588 47,158.5C 45.1839,157.671 43.3506,156.837 41.5,156C 34.9086,149.089 28.5752,142.255 22.5,135.5C 24.1288,136.625 25.6288,137.959 27,139.5C 35.184,135.663 43.3507,131.83 51.5,128C 36.8204,124.83 22.1538,121.663 7.5,118.5C 6.89333,118.624 6.55999,118.957 6.5,119.5C 4.78322,116.233 2.78322,113.066 0.5,110C 1.0442,109.283 1.71087,108.783 2.5,108.5C 2.61998,109.586 3.28665,110.253 4.5,110.5C 21.1698,114.167 37.8364,117.834 54.5,121.5C 55.1835,121.137 55.8501,120.804 56.5,120.5C 57.4972,120.47 58.1639,120.97 58.5,122C 57.9681,124.02 56.6348,124.853 54.5,124.5C 54.5,125.5 54.5,126.5 54.5,127.5C 55.8333,127.5 57.1667,127.5 58.5,127.5C 58.5,126.5 58.5,125.5 58.5,124.5C 59.5,124.5 60.5,124.5 61.5,124.5C 61.5,125.5 61.5,126.5 61.5,127.5C 62.8333,127.5 64.1667,127.5 65.5,127.5C 65.5,126.5 65.5,125.5 65.5,124.5C 66.8333,124.5 68.1667,124.5 69.5,124.5C 69.5,123.167 69.5,121.833 69.5,120.5C 70.5,120.5 71.5,120.5 72.5,120.5C 72.5,119.5 72.5,118.5 72.5,117.5C 73.8221,117.67 74.9887,117.337 76,116.5C 76.49,117.793 76.6567,119.127 76.5,120.5C 77.5,120.5 78.5,120.5 79.5,120.5C 79.5,119.167 79.5,117.833 79.5,116.5C 100.418,107.305 121.418,98.3052 142.5,89.5C 143.183,91.1765 144.517,91.8432 146.5,91.5C 146.5,90.1667 146.5,88.8333 146.5,87.5C 147.5,87.5 148.5,87.5 149.5,87.5C 149.343,86.1266 149.51,84.7932 150,83.5C 150.497,85.8098 150.663,88.1432 150.5,90.5C 151.5,90.5 152.5,90.5 153.5,90.5C 153.5,89.5 153.5,88.5 153.5,87.5C 154.833,87.5 156.167,87.5 157.5,87.5C 157.833,90.5 156.5,91.8333 153.5,91.5C 153.5,92.5 153.5,93.5 153.5,94.5C 155.973,94.0882 157.306,95.0882 157.5,97.5 Z"/></g>
<g><path style="opacity:1" fill="#28c7b7" d="M 145.5,95.5 C 146.5,95.5 147.5,95.5 148.5,95.5C 146.941,107.851 145.275,120.184 143.5,132.5C 139.714,133.292 136.38,134.959 133.5,137.5C 115.805,133.94 98.1388,130.273 80.5,126.5C 80.3601,124.876 81.0267,123.71 82.5,123C 103.824,114.333 124.824,105.166 145.5,95.5 Z"/></g>
<g><path style="opacity:1" fill="#27c7b7" d="M 131.5,205.5 C 130.211,207.248 128.711,207.581 127,206.5C 111,183.167 95,159.833 79,136.5C 78.2506,135.365 78.4173,134.365 79.5,133.5C 97.4425,137.522 115.442,141.355 133.5,145C 134.523,147.897 136.357,150.064 139,151.5C 137.266,169.577 134.766,187.577 131.5,205.5 Z"/></g>
<g><path style="opacity:1" fill="#2cc7b7" d="M 54.5,134.5 C 56.2252,134.843 56.7252,135.843 56,137.5C 52.0672,143.712 47.9006,149.712 43.5,155.5C 39.6819,152.182 36.0152,148.682 32.5,145C 40.0459,141.725 47.3792,138.225 54.5,134.5 Z"/></g>
<g><path style="opacity:0.999" fill="#29c7b7" d="M 120.5,216.5 C 118.167,219.167 115.833,221.833 113.5,224.5C 112.5,224.5 111.5,224.5 110.5,224.5C 109.167,222.833 107.833,221.167 106.5,219.5C 104.833,217.167 102.833,215.167 100.5,213.5C 97.1667,209.5 93.5,205.833 89.5,202.5C 86.1667,198.5 82.5,194.833 78.5,191.5C 75.1667,187.5 71.5,183.833 67.5,180.5C 64.1667,176.5 60.5,172.833 56.5,169.5C 54.1891,166.853 51.8558,164.186 49.5,161.5C 53.4586,154.413 57.7919,147.58 62.5,141C 65.7577,140.788 68.9243,140.288 72,139.5C 88.6667,163.5 105.333,187.5 122,211.5C 122.613,213.495 122.113,215.162 120.5,216.5 Z"/></g>
<g><path style="opacity:0.992" fill="#28c7b7" d="M 151.5,148.5 C 161.409,150.982 171.409,153.149 181.5,155C 168,168.5 154.5,182 141,195.5C 142.631,181.171 144.631,166.837 147,152.5C 148.992,151.672 150.492,150.339 151.5,148.5 Z"/></g>
<g><path style="opacity:0.188" fill="#e6e9e8" d="M 56.5,169.5 C 60.5,172.833 64.1667,176.5 67.5,180.5C 62.8333,177.833 59.1667,174.167 56.5,169.5 Z"/></g>
<g><path style="opacity:0.188" fill="#e6e9e8" d="M 67.5,180.5 C 71.5,183.833 75.1667,187.5 78.5,191.5C 73.8333,188.833 70.1667,185.167 67.5,180.5 Z"/></g>
<g><path style="opacity:0.188" fill="#e6e9e8" d="M 78.5,191.5 C 82.5,194.833 86.1667,198.5 89.5,202.5C 84.8333,199.833 81.1667,196.167 78.5,191.5 Z"/></g>
<g><path style="opacity:0.188" fill="#e6e9e9" d="M 89.5,202.5 C 93.5,205.833 97.1667,209.5 100.5,213.5C 95.8333,210.833 92.1667,207.167 89.5,202.5 Z"/></g>
<g><path style="opacity:0.176" fill="#e5e9e8" d="M 100.5,213.5 C 102.833,215.167 104.833,217.167 106.5,219.5C 103.5,218.5 101.5,216.5 100.5,213.5 Z"/></g>
</svg>
