<?xml version="1.0" encoding="UTF-8"?>
<!DOCTYPE svg PUBLIC "-//W3C//DTD SVG 1.1//EN" "http://www.w3.org/Graphics/SVG/1.1/DTD/svg11.dtd">
<svg xmlns="http://www.w3.org/2000/svg" version="1.1" width="920px" height="512px" style="shape-rendering:geometricPrecision; text-rendering:geometricPrecision; image-rendering:optimizeQuality; fill-rule:evenodd; clip-rule:evenodd" xmlns:xlink="http://www.w3.org/1999/xlink">
<g><path style="opacity:0.603" fill="#000011" d="M 383.5,48.5 C 384.263,49.2679 385.263,49.7679 386.5,50C 371.822,50.556 357.156,50.8893 342.5,51C 343.056,50.6174 343.389,50.1174 343.5,49.5C 356.825,48.9004 370.158,48.567 383.5,48.5 Z"/></g>
<g><path style="opacity:1" fill="#001025" d="M 383.5,48.5 C 403.833,48.5 424.167,48.5 444.5,48.5C 444.389,49.1174 444.056,49.6174 443.5,50C 447.167,50.1667 450.833,50.3333 454.5,50.5C 458.565,50.4888 462.232,49.8222 465.5,48.5C 466.167,48.5 466.833,48.5 467.5,48.5C 467.389,49.1174 467.056,49.6174 466.5,50C 471.333,50.1667 476.167,50.3333 481,50.5C 486.216,50.4937 491.049,49.8271 495.5,48.5C 515.833,48.5 536.167,48.5 556.5,48.5C 552.018,49.3255 547.351,49.8255 542.5,50C 553.174,50.3536 563.841,50.8536 574.5,51.5C 577.025,51.4966 579.359,51.1633 581.5,50.5C 592.163,51.4323 602.497,53.7657 612.5,57.5C 612.389,58.1174 612.056,58.6174 611.5,59C 630.944,68.1106 645.444,82.2773 655,101.5C 655.464,100.906 655.631,100.239 655.5,99.5C 660.915,110.096 663.915,121.43 664.5,133.5C 663.836,135.81 663.503,138.31 663.5,141C 664.14,206.995 664.807,272.828 665.5,338.5C 665.5,342.167 665.5,345.833 665.5,349.5C 664.59,356.658 663.923,363.992 663.5,371.5C 663.505,373.696 663.838,375.696 664.5,377.5C 664.5,379.167 664.5,380.833 664.5,382.5C 663.778,382.082 663.278,381.416 663,380.5C 657.746,419.085 636.579,444.252 599.5,456C 585.386,458.565 571.22,460.399 557,461.5C 492.589,460.171 428.089,460.171 363.5,461.5C 352.205,460.168 340.872,459.002 329.5,458C 303.479,453.34 283.146,440.173 268.5,418.5C 265.949,416.422 264.116,413.756 263,410.5C 260.863,405.255 259.03,399.922 257.5,394.5C 258.139,393.903 258.472,393.07 258.5,392C 257.128,385.909 256.295,379.742 256,373.5C 255.667,358.833 255.333,344.167 255,329.5C 254.597,264.994 254.431,200.66 254.5,136.5C 254.5,134.833 254.5,133.167 254.5,131.5C 255.222,131.918 255.722,132.584 256,133.5C 256.726,128.813 257.559,124.146 258.5,119.5C 258.457,118.584 258.124,117.917 257.5,117.5C 257.928,114.215 258.928,111.215 260.5,108.5C 265.767,96.9649 273.1,86.1316 282.5,76C 282.272,75.6012 281.938,75.4346 281.5,75.5C 281.833,74.5 282.5,73.8333 283.5,73.5C 283.435,73.9382 283.601,74.2716 284,74.5C 293.515,66.1552 304.348,59.9885 316.5,56C 315.906,55.5357 315.239,55.369 314.5,55.5C 323.801,52.3028 333.467,50.3028 343.5,49.5C 343.389,50.1174 343.056,50.6174 342.5,51C 357.156,50.8893 371.822,50.556 386.5,50C 385.263,49.7679 384.263,49.2679 383.5,48.5 Z"/></g>
<g><path style="opacity:0.775" fill="#000006" d="M 444.5,48.5 C 451.5,48.5 458.5,48.5 465.5,48.5C 462.232,49.8222 458.565,50.4888 454.5,50.5C 450.833,50.3333 447.167,50.1667 443.5,50C 444.056,49.6174 444.389,49.1174 444.5,48.5 Z"/></g>
<g><path style="opacity:0.146" fill="#000011" d="M 467.5,48.5 C 476.833,48.5 486.167,48.5 495.5,48.5C 491.049,49.8271 486.216,50.4937 481,50.5C 476.167,50.3333 471.333,50.1667 466.5,50C 467.056,49.6174 467.389,49.1174 467.5,48.5 Z"/></g>
<g><path style="opacity:0.521" fill="#000013" d="M 556.5,48.5 C 564.879,49.104 573.212,49.7707 581.5,50.5C 579.359,51.1633 577.025,51.4966 574.5,51.5C 563.841,50.8536 553.174,50.3536 542.5,50C 547.351,49.8255 552.018,49.3255 556.5,48.5 Z"/></g>
<g><path style="opacity:0.345" fill="#000013" d="M 314.5,55.5 C 315.239,55.369 315.906,55.5357 316.5,56C 304.348,59.9885 293.515,66.1552 284,74.5C 283.601,74.2716 283.435,73.9382 283.5,73.5C 292.098,64.6947 302.432,58.6947 314.5,55.5 Z"/></g>
<g><path style="opacity:0.204" fill="#00000d" d="M 612.5,57.5 C 631.934,66.3643 646.267,80.3643 655.5,99.5C 655.631,100.239 655.464,100.906 655,101.5C 645.444,82.2773 630.944,68.1106 611.5,59C 612.056,58.6174 612.389,58.1174 612.5,57.5 Z"/></g>
<g><path style="opacity:0.773" fill="#00000d" d="M 281.5,75.5 C 281.938,75.4346 282.272,75.6012 282.5,76C 273.1,86.1316 265.767,96.9649 260.5,108.5C 264.228,95.3686 271.228,84.3686 281.5,75.5 Z"/></g>
<g><path style="opacity:0.316" fill="#000007" d="M 257.5,117.5 C 258.124,117.917 258.457,118.584 258.5,119.5C 257.559,124.146 256.726,128.813 256,133.5C 255.722,132.584 255.222,131.918 254.5,131.5C 255.138,126.643 256.138,121.977 257.5,117.5 Z"/></g>
<g><path style="opacity:1" fill="#219bfe" d="M 337.5,146.5 C 362.502,146.333 387.502,146.5 412.5,147C 451.102,151.433 471.769,172.933 474.5,211.5C 473.022,246.147 455.355,267.314 421.5,275C 406.308,278.3 391.308,279.134 376.5,277.5C 376.667,297.169 376.5,316.836 376,336.5C 375,337.167 374,337.833 373,338.5C 361.234,338.358 349.4,338.025 337.5,337.5C 336.171,273.766 336.171,210.099 337.5,146.5 Z"/></g>
<g><path style="opacity:0.686" fill="#000006" d="M 664.5,133.5 C 665.256,154.463 665.923,175.463 666.5,196.5C 665.62,244.296 665.287,291.629 665.5,338.5C 664.807,272.828 664.14,206.995 663.5,141C 663.503,138.31 663.836,135.81 664.5,133.5 Z"/></g>
<g><path style="opacity:1" fill="#001025" d="M 377.5,181.5 C 389.197,181.307 400.864,181.807 412.5,183C 427.03,187.198 434.363,196.864 434.5,212C 434.043,226.248 427.043,235.582 413.5,240C 401.281,242.854 388.948,243.687 376.5,242.5C 376.179,222.091 376.512,201.758 377.5,181.5 Z"/></g>
<g><path style="opacity:1" fill="#219bfd" d="M 534.5,190.5 C 550.011,189.661 565.345,190.827 580.5,194C 583.034,194.516 585.2,195.683 587,197.5C 587.975,208.991 587.642,220.324 586,231.5C 569.971,223.591 553.138,221.091 535.5,224C 529.128,226.239 527.295,230.406 530,236.5C 531.873,238.709 534.04,240.542 536.5,242C 549.403,247.118 562.07,252.784 574.5,259C 594.324,271.515 600.49,289.015 593,311.5C 585.382,326.573 573.215,335.74 556.5,339C 539.724,342.112 522.391,341.445 504.5,337C 499.95,335.932 495.783,334.098 492,331.5C 491.5,319.838 491.333,308.171 491.5,296.5C 497.802,298.98 504.135,301.48 510.5,304C 524.457,308.09 538.457,308.423 552.5,305C 558.342,298.534 557.342,293.201 549.5,289C 538.619,283.726 527.619,278.726 516.5,274C 495.532,263.449 487.365,246.616 492,223.5C 495.511,212.323 502.344,203.823 512.5,198C 519.578,194.364 526.911,191.864 534.5,190.5 Z"/></g>
<g><path style="opacity:0.427" fill="#000005" d="M 254.5,136.5 C 254.431,200.66 254.597,264.994 255,329.5C 255.333,344.167 255.667,358.833 256,373.5C 256.295,379.742 257.128,385.909 258.5,392C 258.472,393.07 258.139,393.903 257.5,394.5C 255.254,385.351 254.087,376.017 254,366.5C 253.185,289.818 253.351,213.152 254.5,136.5 Z"/></g>
<g><path style="opacity:0.469" fill="#000005" d="M 665.5,349.5 C 665.721,358.866 665.387,368.199 664.5,377.5C 663.838,375.696 663.505,373.696 663.5,371.5C 663.923,363.992 664.59,356.658 665.5,349.5 Z"/></g>
<g><path style="opacity:0.331" fill="#000004" d="M 664.5,382.5 C 657.869,421.63 635.535,446.797 597.5,458C 591.607,459.64 585.607,460.64 579.5,461C 540.18,462.107 500.846,462.607 461.5,462.5C 428.167,462.333 394.833,462.167 361.5,462C 335.832,463.344 312.166,457.344 290.5,444C 281.086,437.101 273.753,428.601 268.5,418.5C 283.146,440.173 303.479,453.34 329.5,458C 340.872,459.002 352.205,460.168 363.5,461.5C 428.089,460.171 492.589,460.171 557,461.5C 571.22,460.399 585.386,458.565 599.5,456C 636.579,444.252 657.746,419.085 663,380.5C 663.278,381.416 663.778,382.082 664.5,382.5 Z"/></g>
</svg>
