<?xml version="1.0" encoding="UTF-8"?>
<!DOCTYPE svg PUBLIC "-//W3C//DTD SVG 1.1//EN" "http://www.w3.org/Graphics/SVG/1.1/DTD/svg11.dtd">
<svg xmlns="http://www.w3.org/2000/svg" version="1.1" width="360px" height="360px" style="shape-rendering:geometricPrecision; text-rendering:geometricPrecision; image-rendering:optimizeQuality; fill-rule:evenodd; clip-rule:evenodd" xmlns:xlink="http://www.w3.org/1999/xlink">
<g><path style="opacity:1" fill="#61dafb" d="M 116.5,5.5 C 132.57,5.24563 146.904,10.079 159.5,20C 166.312,25.3112 172.979,30.8112 179.5,36.5C 191.303,25.0993 204.636,15.9327 219.5,9C 245.822,0.240371 261.655,9.40704 267,36.5C 268.626,53.0071 267.126,69.1738 262.5,85C 279.631,89.7323 295.297,97.399 309.5,108C 324.564,121.625 326.398,136.791 315,153.5C 305.625,162.778 294.792,169.944 282.5,175C 275.758,177.136 269.091,179.469 262.5,182C 267.336,198.205 268.836,214.705 267,231.5C 261.168,257.337 245.668,266.17 220.5,258C 205.088,250.965 191.422,241.465 179.5,229.5C 167.697,240.901 154.364,250.067 139.5,257C 113.136,265.741 97.3027,256.574 92,229.5C 90.4206,213.001 91.9206,196.835 96.5,181C 80.7197,176.635 66.0531,169.969 52.5,161C 31.1667,142.333 31.1667,123.667 52.5,105C 66.1332,95.8502 80.7998,88.8502 96.5,84C 91.1043,66.4223 89.9376,48.5889 93,30.5C 95.978,17.3614 103.811,9.02807 116.5,5.5 Z M 117.5,18.5 C 127.658,17.8731 136.992,20.3731 145.5,26C 154.608,31.8876 162.942,38.721 170.5,46.5C 161.662,55.6913 153.662,65.5246 146.5,76C 133.709,77.0766 121.042,78.91 108.5,81.5C 104.95,67.0328 103.784,52.3662 105,37.5C 105.698,28.743 109.865,22.4097 117.5,18.5 Z M 230.5,18.5 C 241.851,16.3786 249.351,20.7119 253,31.5C 255.934,48.312 255.1,64.9787 250.5,81.5C 237.839,79.5011 225.173,77.5011 212.5,75.5C 205.214,65.5455 197.547,55.8788 189.5,46.5C 201.054,33.9036 214.721,24.5703 230.5,18.5 Z M 167.5,74.5 C 166.209,74.7373 165.209,74.404 164.5,73.5C 169.106,67.5563 174.106,61.8896 179.5,56.5C 185.032,61.8665 190.032,67.6998 194.5,74C 185.506,74.4998 176.506,74.6664 167.5,74.5 Z M 161.5,87.5 C 176.207,87.1271 190.873,87.6271 205.5,89C 214.804,102.432 222.97,116.598 230,131.5C 229.866,135.797 228.533,139.797 226,143.5C 219.563,154.931 212.73,166.097 205.5,177C 196.905,178.123 188.239,178.623 179.5,178.5C 170.761,178.623 162.095,178.123 153.5,177C 144.451,163.743 136.285,149.91 129,135.5C 128.333,134.167 128.333,132.833 129,131.5C 135.988,116.849 143.988,102.849 153,89.5C 155.939,88.8719 158.772,88.2052 161.5,87.5 Z M 132.5,90.5 C 133.978,90.238 135.311,90.5713 136.5,91.5C 131.082,100.001 125.915,108.668 121,117.5C 117.889,110.278 115.056,102.944 112.5,95.5C 119.14,93.3102 125.806,91.6436 132.5,90.5 Z M 222.5,91.5 C 230.331,91.1037 238.164,92.1037 246,94.5C 244.243,102.376 241.576,110.043 238,117.5C 233.368,108.402 228.201,99.7349 222.5,91.5 Z M 98.5,97.5 C 99.4972,97.4701 100.164,97.9701 100.5,99C 104.244,110.568 108.578,121.901 113.5,133C 108.146,144.562 103.479,156.395 99.5,168.5C 82.2392,164.288 67.0725,156.288 54,144.5C 48,136.833 48,129.167 54,121.5C 61.0747,114.433 69.2413,108.933 78.5,105C 85.3042,102.569 91.9709,100.069 98.5,97.5 Z M 259.5,97.5 C 272.577,101.372 284.91,106.872 296.5,114C 314.032,127.332 313.698,140.332 295.5,153C 284.304,160.011 272.304,165.177 259.5,168.5C 255.13,156.557 250.463,144.724 245.5,133C 250.86,121.415 255.527,109.582 259.5,97.5 Z M 237.5,148.5 C 241,155.517 244,162.85 246.5,170.5C 238.835,173.599 230.835,175.099 222.5,175C 228.156,166.517 233.156,157.684 237.5,148.5 Z M 120.5,149.5 C 121.376,149.369 122.043,149.702 122.5,150.5C 127.341,159.188 131.841,167.854 136,176.5C 128.159,174.997 120.325,173.331 112.5,171.5C 115.371,164.22 118.037,156.886 120.5,149.5 Z M 108.5,184.5 C 120.971,186.662 133.471,188.662 146,190.5C 153.766,200.605 161.932,210.439 170.5,220C 158.931,232.245 145.264,241.245 129.5,247C 115.293,249.645 107.127,243.812 105,229.5C 103.708,214.296 104.874,199.296 108.5,184.5 Z M 246.5,184.5 C 247.833,184.5 249.167,184.5 250.5,184.5C 254.529,200.679 255.363,217.012 253,233.5C 248.444,247.189 239.277,251.355 225.5,246C 211.274,240.052 198.941,231.385 188.5,220C 197.033,210.411 205.199,200.578 213,190.5C 224.462,189.428 235.628,187.428 246.5,184.5 Z M 164.5,192.5 C 174.341,191.177 184.341,191.177 194.5,192.5C 189.843,198.489 184.843,204.156 179.5,209.5C 174.106,204.11 169.106,198.444 164.5,192.5 Z"/></g>
<g><path style="opacity:0.604" fill="#94e4f9" d="M 164.5,73.5 C 165.209,74.404 166.209,74.7373 167.5,74.5C 166.292,75.782 164.958,75.782 163.5,74.5C 163.624,73.8933 163.957,73.56 164.5,73.5 Z"/></g>
<g><path style="opacity:1" fill="#61dafb" d="M 177.5,106.5 C 199.258,109.022 208.091,121.022 204,142.5C 195.621,158.294 183.121,162.794 166.5,156C 152.264,145.113 149.764,131.946 159,116.5C 164.186,111.16 170.353,107.827 177.5,106.5 Z"/></g>
<g><path style="opacity:0.976" fill="#51d8fc" d="M 44.5,279.5 C 56.3217,278.505 68.3217,278.172 80.5,278.5C 69.0981,279.176 57.5981,279.843 46,280.5C 45.6174,279.944 45.1174,279.611 44.5,279.5 Z"/></g>
<g><path style="opacity:1" fill="#61dafb" d="M 80.5,278.5 C 91.1879,280.355 97.3546,286.689 99,297.5C 99.6125,311.442 93.1125,319.942 79.5,323C 86.2157,332.271 92.549,341.771 98.5,351.5C 98.5,352.167 98.1667,352.5 97.5,352.5C 94.9657,353.061 92.4657,353.394 90,353.5C 89.2496,352.874 88.4162,352.374 87.5,352C 81.4141,342.494 75.0808,333.16 68.5,324C 63.1771,323.501 57.8437,323.334 52.5,323.5C 51.507,331.984 51.1736,340.651 51.5,349.5C 49.1667,349.5 46.8333,349.5 44.5,349.5C 44.5,326.167 44.5,302.833 44.5,279.5C 45.1174,279.611 45.6174,279.944 46,280.5C 57.5981,279.843 69.0981,279.176 80.5,278.5 Z M 72.5,286.5 C 84.3663,287.21 89.533,293.544 88,305.5C 86.5,309.667 83.6667,312.5 79.5,314C 70.5062,314.5 61.5062,314.666 52.5,314.5C 52.3336,305.494 52.5002,296.494 53,287.5C 59.4102,286.522 65.9102,286.189 72.5,286.5 Z"/></g>
<g><path style="opacity:1" fill="#62dafb" d="M 310.5,353.5 C 307.023,352.677 303.356,352.177 299.5,352C 297.333,351.167 295.833,349.667 295,347.5C 294.667,333.833 294.333,320.167 294,306.5C 293.5,319.829 293.333,333.163 293.5,346.5C 292.504,333.344 292.171,320.01 292.5,306.5C 289.5,306.5 286.5,306.5 283.5,306.5C 283.232,303.881 283.565,301.381 284.5,299C 287.146,298.503 289.813,298.336 292.5,298.5C 292.5,293.5 292.5,288.5 292.5,283.5C 295.167,283.5 297.833,283.5 300.5,283.5C 300.5,288.167 300.5,292.833 300.5,297.5C 304.167,297.5 307.833,297.5 311.5,297.5C 311.5,300.5 311.5,303.5 311.5,306.5C 308.102,306.18 304.768,306.513 301.5,307.5C 300.954,308.772 300.621,310.106 300.5,311.5C 301.312,321.157 301.478,330.823 301,340.5C 302.583,346.592 306.083,347.925 311.5,344.5C 315.721,348.306 315.387,351.306 310.5,353.5 Z"/></g>
<g><path style="opacity:0.976" fill="#52d8fb" d="M 72.5,286.5 C 65.9102,286.189 59.4102,286.522 53,287.5C 52.5002,296.494 52.3336,305.494 52.5,314.5C 51.3424,305.343 51.1757,296.009 52,286.5C 62.1509,285.199 68.9842,285.199 72.5,286.5 Z"/></g>
<g><path style="opacity:1" fill="#62dafb" d="M 130.5,297.5 C 151.624,296.956 162.29,307.289 162.5,328.5C 147.818,328.167 133.152,328.501 118.5,329.5C 121.302,343.234 129.635,349.068 143.5,347C 147.869,345.733 151.703,343.567 155,340.5C 156.182,342.344 157.349,344.177 158.5,346C 156.825,348.685 154.492,350.685 151.5,352C 140.286,356.105 129.619,355.105 119.5,349C 106.529,334.287 106.196,319.287 118.5,304C 122.434,301.536 126.434,299.369 130.5,297.5 Z M 132.5,305.5 C 145.285,304.302 152.285,309.968 153.5,322.5C 142.167,322.5 130.833,322.5 119.5,322.5C 120.235,314.011 124.568,308.344 132.5,305.5 Z"/></g>
<g><path style="opacity:1" fill="#61dafb" d="M 189.5,297.5 C 197.466,296.867 205.133,298.034 212.5,301C 215.754,303.342 217.588,306.509 218,310.5C 218.5,324.163 218.667,337.829 218.5,351.5C 215.833,351.5 213.167,351.5 210.5,351.5C 210.657,350.127 210.49,348.793 210,347.5C 200.074,355.758 189.574,356.591 178.5,350C 170.06,339.331 171.06,329.664 181.5,321C 191.363,316.863 200.529,318.029 209,324.5C 211.922,308.531 205.422,302.364 189.5,306C 185.726,307.302 182.559,309.469 180,312.5C 177.827,310.47 176.493,308.137 176,305.5C 180.189,302.109 184.689,299.442 189.5,297.5 Z M 192.5,324.5 C 207.402,323.867 212.402,330.367 207.5,344C 201.922,347.301 195.922,348.301 189.5,347C 182.393,342.965 180.56,337.131 184,329.5C 186.398,326.892 189.231,325.225 192.5,324.5 Z"/></g>
<g><path style="opacity:1" fill="#60dafb" d="M 251.5,297.5 C 260.613,296.152 268.947,297.985 276.5,303C 277.574,303.739 278.241,304.739 278.5,306C 277.372,308.296 275.705,310.129 273.5,311.5C 265.51,304.5 256.843,303.667 247.5,309C 240.657,318.275 239.824,328.108 245,338.5C 254.221,348.737 263.721,349.07 273.5,339.5C 275.193,341.027 277.027,342.36 279,343.5C 279.163,345.387 278.329,346.887 276.5,348C 266.232,354.507 255.565,355.173 244.5,350C 233.489,340.469 229.989,328.636 234,314.5C 237.109,305.889 242.943,300.222 251.5,297.5 Z"/></g>
<g><path style="opacity:0.976" fill="#58d9fb" d="M 310.5,353.5 C 304.123,355.684 298.623,354.351 294,349.5C 293.517,348.552 293.351,347.552 293.5,346.5C 293.333,333.163 293.5,319.829 294,306.5C 294.333,320.167 294.667,333.833 295,347.5C 295.833,349.667 297.333,351.167 299.5,352C 303.356,352.177 307.023,352.677 310.5,353.5 Z"/></g>
<g><path style="opacity:0.976" fill="#5ed9fb" d="M 52.5,323.5 C 52.5,332.833 52.5,342.167 52.5,351.5C 49.3019,352.036 46.6353,351.369 44.5,349.5C 46.8333,349.5 49.1667,349.5 51.5,349.5C 51.1736,340.651 51.507,331.984 52.5,323.5 Z"/></g>
<g><path style="opacity:0.604" fill="#94e4f9" d="M 98.5,351.5 C 99.0431,351.56 99.3764,351.893 99.5,352.5C 98.7435,353.773 98.0768,353.773 97.5,352.5C 98.1667,352.5 98.5,352.167 98.5,351.5 Z"/></g>
</svg>
