<?xml version="1.0" encoding="UTF-8"?>
<!DOCTYPE svg PUBLIC "-//W3C//DTD SVG 1.1//EN" "http://www.w3.org/Graphics/SVG/1.1/DTD/svg11.dtd">
<svg xmlns="http://www.w3.org/2000/svg" version="1.1" width="1000px" height="850px" style="shape-rendering:geometricPrecision; text-rendering:geometricPrecision; image-rendering:optimizeQuality; fill-rule:evenodd; clip-rule:evenodd" xmlns:xlink="http://www.w3.org/1999/xlink">
<g><path style="opacity:1" fill="#cb6597" d="M 502.5,131.5 C 529.997,133.503 555.997,140.67 580.5,153C 615.589,174.87 629.423,206.37 622,247.5C 612.438,290.18 590.271,324.513 555.5,350.5C 516.206,378.772 472.206,394.939 423.5,399C 408.833,399.667 394.167,399.667 379.5,399C 354.488,396.414 333.988,385.581 318,366.5C 317.536,367.094 317.369,367.761 317.5,368.5C 313.079,362.979 310.912,356.646 311,349.5C 313.707,347.114 316.54,346.948 319.5,349C 335.079,365.612 354.413,373.779 377.5,373.5C 377.881,374.931 378.881,375.764 380.5,376C 441.159,375.066 493.992,354.566 539,314.5C 539.791,313.255 540.291,311.922 540.5,310.5C 560.049,292.416 573.216,270.416 580,244.5C 584.218,222.31 577.051,205.31 558.5,193.5C 559.738,193.19 559.738,192.69 558.5,192C 544.448,184.428 529.448,180.094 513.5,179C 465.942,176.312 420.275,184.312 376.5,203C 377.094,203.464 377.761,203.631 378.5,203.5C 334.97,221.346 294.304,244.346 256.5,272.5C 237.123,287.711 220.29,305.377 206,325.5C 193.78,345.052 188.78,366.385 191,389.5C 193.999,402.515 199.665,414.182 208,424.5C 227.019,446.187 248.519,465.02 272.5,481C 273.252,481.671 273.586,482.504 273.5,483.5C 286.782,494.943 299.948,506.61 313,518.5C 338.404,504.547 363.904,490.714 389.5,477C 403.502,457.844 421.169,443.177 442.5,433C 451.287,429.324 460.287,428.657 469.5,431C 477.315,435.108 481.815,441.608 483,450.5C 483.483,449.552 483.649,448.552 483.5,447.5C 484.216,452.034 484.883,456.701 485.5,461.5C 484.386,466.446 484.219,471.446 485,476.5C 493.702,470.835 501.702,471.835 509,479.5C 509.667,483.833 509.667,488.167 509,492.5C 501.643,517.571 495.31,542.905 490,568.5C 489.169,574.859 489.336,581.193 490.5,587.5C 493.144,584.891 495.311,581.891 497,578.5C 519.993,530.208 541.993,481.541 563,432.5C 565.999,423.349 568.832,414.182 571.5,405C 574.94,402.132 578.94,400.465 583.5,400C 593.188,398.411 602.854,398.411 612.5,400C 618.054,401.53 620.221,405.03 619,410.5C 605.522,439.767 606.522,468.433 622,496.5C 637.98,470.89 652.646,444.557 666,417.5C 669.286,407.979 671.953,398.312 674,388.5C 675.749,381.416 680.249,377.583 687.5,377C 697.853,375.36 708.186,375.36 718.5,377C 722.68,378.024 724.68,380.69 724.5,385C 721.595,394.782 718.762,404.616 716,414.5C 712.368,440.241 718.368,463.241 734,483.5C 772.547,465.332 812.047,462.832 852.5,476C 881.919,487.085 901.419,507.585 911,537.5C 916.624,567.083 906.124,588.583 879.5,602C 875.85,603.502 872.184,603.669 868.5,602.5C 867.167,600.833 867.167,599.167 868.5,597.5C 897.438,579.923 902.605,556.923 884,528.5C 866.6,508.911 844.766,498.078 818.5,496C 795.499,493.354 772.833,495.021 750.5,501C 748.283,502.275 745.949,503.275 743.5,504C 742.941,504.725 742.608,505.558 742.5,506.5C 754.113,538.065 746.113,563.232 718.5,582C 703.747,592.432 687.413,598.099 669.5,599C 661.096,596.691 656.596,591.191 656,582.5C 655.849,565.472 660.849,550.139 671,536.5C 679.795,524.706 689.628,513.873 700.5,504C 690.831,485.165 683.998,465.332 680,444.5C 666.542,470.749 651.542,496.082 635,520.5C 637.703,529.97 640.036,539.637 642,549.5C 644.736,575.333 635.236,595.167 613.5,609C 592.856,622.233 570.523,626.566 546.5,622C 544.667,620.833 543.167,619.333 542,617.5C 540.89,611.574 541.556,605.908 544,600.5C 562.158,578.826 579.824,556.826 597,534.5C 597.667,532.833 597.667,531.167 597,529.5C 585.805,510.394 578.471,489.728 575,467.5C 557.042,511.743 536.709,554.743 514,596.5C 507.795,609.048 499.628,620.215 489.5,630C 481.304,636.442 472.638,637.108 463.5,632C 458.009,625.541 454.843,618.041 454,609.5C 453.406,598.78 453.406,588.113 454,577.5C 446.021,597.833 436.354,617.166 425,635.5C 414.437,646.738 401.937,649.238 387.5,643C 378.355,634.547 371.855,624.381 368,612.5C 360.395,590.311 358.728,567.645 363,544.5C 365.336,534.503 367.336,524.503 369,514.5C 355.367,522.218 341.867,530.218 328.5,538.5C 332.646,547.772 335.479,557.438 337,567.5C 341.584,602.013 334.417,633.679 315.5,662.5C 313.149,665.239 310.816,667.905 308.5,670.5C 294.553,685.502 277.887,697.668 258.5,707C 234.369,716.327 209.703,717.994 184.5,712C 171.411,705.036 163.245,694.202 160,679.5C 158.979,670.039 158.146,660.706 157.5,651.5C 159.341,639.8 163.174,628.8 169,618.5C 185.565,596.763 205.398,578.763 228.5,564.5C 246.572,553.467 264.905,542.967 283.5,533C 259.538,514.352 234.872,496.685 209.5,480C 189.155,465.161 170.822,447.994 154.5,428.5C 143.666,414.479 136.166,398.812 132,381.5C 131.333,373.5 131.333,365.5 132,357.5C 138.207,332.201 149.374,309.535 165.5,289.5C 165.775,291.842 166.608,291.842 168,289.5C 187.673,265.262 210.173,244.095 235.5,226C 289.812,188.645 348.812,160.645 412.5,142C 442.45,135.504 472.45,132.004 502.5,131.5 Z M 455.5,459.5 C 461.326,458.329 463.993,460.663 463.5,466.5C 460.329,483.52 455.829,500.186 450,516.5C 440.789,540.338 431.122,564.004 421,587.5C 419.045,589.911 417.211,592.411 415.5,595C 413.515,596.997 411.181,597.664 408.5,597C 406.877,594.92 405.377,592.754 404,590.5C 396.877,543.284 409.377,502.284 441.5,467.5C 445.752,463.883 450.419,461.216 455.5,459.5 Z M 711.5,520.5 C 712.117,520.611 712.617,520.944 713,521.5C 717.964,546.9 708.297,564.233 684,573.5C 683.333,570.5 683.333,567.5 684,564.5C 689.369,547.331 698.536,532.664 711.5,520.5 Z M 293.5,625.5 C 278.12,652.704 254.953,668.704 224,673.5C 214.929,673.43 208.929,669.097 206,660.5C 204.403,650.286 205.903,640.62 210.5,631.5C 213.386,625.396 216.553,619.396 220,613.5C 227.194,604.973 235.027,597.14 243.5,590C 262.441,575.855 282.107,562.688 302.5,550.5C 308.116,570.959 307.616,591.292 301,611.5C 298.27,616.058 295.77,620.725 293.5,625.5 Z M 608.5,555.5 C 609.124,555.917 609.457,556.584 609.5,557.5C 605.903,573.531 597.237,586.031 583.5,595C 580.018,596.83 576.518,598.664 573,600.5C 572.251,599.365 572.417,598.365 573.5,597.5C 586.29,584.382 597.957,570.382 608.5,555.5 Z"/></g>
<g><path style="opacity:0.357" fill="#bc4c82" d="M 502.5,131.5 C 472.45,132.004 442.45,135.504 412.5,142C 348.812,160.645 289.812,188.645 235.5,226C 210.173,244.095 187.673,265.262 168,289.5C 166.608,291.842 165.775,291.842 165.5,289.5C 195.159,253.676 230.159,224.176 270.5,201C 315.787,174.702 363.787,154.369 414.5,140C 443.423,133.101 472.756,130.268 502.5,131.5 Z"/></g>
<g><path style="opacity:0.353" fill="#c14b87" d="M 558.5,193.5 C 537.61,183.44 515.443,178.773 492,179.5C 452.669,180.786 414.836,188.786 378.5,203.5C 377.761,203.631 377.094,203.464 376.5,203C 420.275,184.312 465.942,176.312 513.5,179C 529.448,180.094 544.448,184.428 558.5,192C 559.738,192.69 559.738,193.19 558.5,193.5 Z"/></g>
<g><path style="opacity:0.675" fill="#bd4d83" d="M 540.5,310.5 C 540.291,311.922 539.791,313.255 539,314.5C 493.992,354.566 441.159,375.066 380.5,376C 378.881,375.764 377.881,374.931 377.5,373.5C 440.517,374.195 494.851,353.195 540.5,310.5 Z"/></g>
<g><path style="opacity:0.165" fill="#c04d85" d="M 555.5,350.5 C 551.027,355.126 546.027,359.293 540.5,363C 483.796,396.821 422.796,407.821 357.5,396C 341.506,390.474 328.173,381.307 317.5,368.5C 317.369,367.761 317.536,367.094 318,366.5C 333.988,385.581 354.488,396.414 379.5,399C 394.167,399.667 408.833,399.667 423.5,399C 472.206,394.939 516.206,378.772 555.5,350.5 Z"/></g>
<g><path style="opacity:0.671" fill="#bd4d82" d="M 483.5,447.5 C 483.649,448.552 483.483,449.552 483,450.5C 481.815,441.608 477.315,435.108 469.5,431C 460.287,428.657 451.287,429.324 442.5,433C 421.169,443.177 403.502,457.844 389.5,477C 363.904,490.714 338.404,504.547 313,518.5C 299.948,506.61 286.782,494.943 273.5,483.5C 280.885,488.039 287.885,493.205 294.5,499C 300.763,505.104 307.096,510.937 313.5,516.5C 337.693,503.156 362.026,489.989 386.5,477C 398.185,463.316 411.185,450.983 425.5,440C 435.9,433.3 447.233,429.134 459.5,427.5C 472.674,428.01 480.674,434.677 483.5,447.5 Z"/></g>
<g><path style="opacity:0.71" fill="#bd4e84" d="M 293.5,625.5 C 294.239,625.369 294.906,625.536 295.5,626C 280.981,651.197 259.648,667.197 231.5,674C 210.885,677.051 201.718,668.218 204,647.5C 204.661,641.523 206.328,635.856 209,630.5C 209.383,631.056 209.883,631.389 210.5,631.5C 205.903,640.62 204.403,650.286 206,660.5C 208.929,669.097 214.929,673.43 224,673.5C 254.953,668.704 278.12,652.704 293.5,625.5 Z"/></g>
<g><path style="opacity:0.475" fill="#c04d85" d="M 157.5,651.5 C 158.146,660.706 158.979,670.039 160,679.5C 163.245,694.202 171.411,705.036 184.5,712C 209.703,717.994 234.369,716.327 258.5,707C 277.887,697.668 294.553,685.502 308.5,670.5C 289.281,694.794 264.281,709.961 233.5,716C 217.363,718.439 201.363,717.773 185.5,714C 172.752,708.36 164.252,698.86 160,685.5C 156.524,674.318 155.691,662.985 157.5,651.5 Z"/></g>
</svg>
